<?xml version="1.0" encoding="UTF-8" standalone="no"?>
<!DOCTYPE svg PUBLIC "-//W3C//DTD SVG 1.1//EN"
 "http://www.w3.org/Graphics/SVG/1.1/DTD/svg11.dtd">
<!-- Generated by graphviz version 13.1.0 (20250701.0955)
 -->
<!-- Title: RLAD_Flowchart_Image_Style Pages: 1 -->
<svg width="1993pt" height="474pt"
 viewBox="0.00 0.00 1993.00 474.00" xmlns="http://www.w3.org/2000/svg" xmlns:xlink="http://www.w3.org/1999/xlink">
<g id="graph0" class="graph" transform="scale(1 1) rotate(0) translate(4 469.5)">
<title>RLAD_Flowchart_Image_Style</title>
<polygon fill="white" stroke="none" points="-4,4 -4,-469.5 1989,-469.5 1989,4 -4,4"/>
<text xml:space="preserve" text-anchor="middle" x="992.5" y="-440.6" font-family="Helvetica,sans-Serif" font-size="22.00">一个融合分解&#45;密度与强化引导主动学习的异常检测框架</text>
<g id="clust1" class="cluster">
<title>cluster_phase1</title>
<polygon fill="#f4f6f7" stroke="#f4f6f7" points="259.5,-335 259.5,-424 832.5,-424 832.5,-335 259.5,-335"/>
<text xml:space="preserve" text-anchor="middle" x="546" y="-402.9" font-family="Helvetica,sans-Serif" font-size="18.00">Phase 1: Signal Decomposition</text>
</g>
<g id="clust2" class="cluster">
<title>cluster_phase2</title>
<polygon fill="#f4f6f7" stroke="#f4f6f7" points="925.5,-335 925.5,-424 1628.75,-424 1628.75,-335 925.5,-335"/>
<text xml:space="preserve" text-anchor="middle" x="1277.12" y="-402.9" font-family="Helvetica,sans-Serif" font-size="18.00">Phase 2: Pseudo&#45;Label Generation</text>
</g>
<g id="clust3" class="cluster">
<title>cluster_phase3</title>
<polygon fill="#f4f6f7" stroke="#f4f6f7" points="931,-8 931,-322 1977,-322 1977,-8 931,-8"/>
<text xml:space="preserve" text-anchor="middle" x="1454" y="-300.9" font-family="Helvetica,sans-Serif" font-size="18.00">Phase 3: Reinforcement&#45;Guided Active Learning</text>
</g>
<g id="clust4" class="cluster">
<title>cluster_agent</title>
<path fill="white" stroke="white" d="M951,-16C951,-16 1510.38,-16 1510.38,-16 1516.38,-16 1522.38,-22 1522.38,-28 1522.38,-28 1522.38,-85 1522.38,-85 1522.38,-91 1516.38,-97 1510.38,-97 1510.38,-97 951,-97 951,-97 945,-97 939,-91 939,-85 939,-85 939,-28 939,-28 939,-22 945,-16 951,-16"/>
<text xml:space="preserve" text-anchor="middle" x="1230.69" y="-75.9" font-family="Helvetica,sans-Serif" font-size="18.00">RLAD Agent</text>
</g>
<!-- data_input -->
<g id="node1" class="node">
<title>data_input</title>
<polygon fill="white" stroke="#566573" points="158.5,-381 0,-381 0,-277 158.5,-277 158.5,-381"/>
<polygon fill="#e5e7e9" stroke="none" points="8,-353 8,-377 150.5,-377 150.5,-353 8,-353"/>
<polygon fill="none" stroke="#566573" points="8,-353 8,-377 150.5,-377 150.5,-353 8,-353"/>
<text xml:space="preserve" text-anchor="start" x="11" y="-360.75" font-family="Helvetica,sans-Serif" font-weight="bold" font-size="15.00">Y</text>
<text xml:space="preserve" text-anchor="start" x="20.75" y="-360.75" font-family="Helvetica,sans-Serif" font-size="15.00"> (Raw Time Series)</text>
<polygon fill="none" stroke="#566573" points="8,-329 8,-353 66.5,-353 66.5,-329 8,-329"/>
<text xml:space="preserve" text-anchor="start" x="14" y="-335.75" font-family="Helvetica,sans-Serif" font-size="15.00">y₁,₁</text>
<polygon fill="none" stroke="#566573" points="66.5,-329 66.5,-353 92,-353 92,-329 66.5,-329"/>
<text xml:space="preserve" text-anchor="start" x="72.5" y="-335.75" font-family="Helvetica,sans-Serif" font-size="15.00">...</text>
<polygon fill="none" stroke="#566573" points="92,-329 92,-353 150.5,-353 150.5,-329 92,-329"/>
<text xml:space="preserve" text-anchor="start" x="98" y="-335.75" font-family="Helvetica,sans-Serif" font-size="15.00">y₁,ₜ</text>
<polygon fill="none" stroke="#566573" points="8,-305 8,-329 66.5,-329 66.5,-305 8,-305"/>
<text xml:space="preserve" text-anchor="start" x="30.5" y="-311.75" font-family="Helvetica,sans-Serif" font-size="15.00">...</text>
<polygon fill="none" stroke="#566573" points="66.5,-305 66.5,-329 92,-329 92,-305 66.5,-305"/>
<text xml:space="preserve" text-anchor="start" x="72.5" y="-311.75" font-family="Helvetica,sans-Serif" font-size="15.00">...</text>
<polygon fill="none" stroke="#566573" points="92,-305 92,-329 150.5,-329 150.5,-305 92,-305"/>
<text xml:space="preserve" text-anchor="start" x="114.5" y="-311.75" font-family="Helvetica,sans-Serif" font-size="15.00">...</text>
<polygon fill="none" stroke="#566573" points="8,-281 8,-305 66.5,-305 66.5,-281 8,-281"/>
<text xml:space="preserve" text-anchor="start" x="14" y="-287.75" font-family="Helvetica,sans-Serif" font-size="15.00">yₙ,₁</text>
<polygon fill="none" stroke="#566573" points="66.5,-281 66.5,-305 92,-305 92,-281 66.5,-281"/>
<text xml:space="preserve" text-anchor="start" x="72.5" y="-287.75" font-family="Helvetica,sans-Serif" font-size="15.00">...</text>
<polygon fill="none" stroke="#566573" points="92,-281 92,-305 150.5,-305 150.5,-281 92,-281"/>
<text xml:space="preserve" text-anchor="start" x="98" y="-287.75" font-family="Helvetica,sans-Serif" font-size="15.00">yₙ,ₜ</text>
</g>
<!-- stl_decomp -->
<g id="node2" class="node">
<title>stl_decomp</title>
<polygon fill="#85c1e9" stroke="#566573" points="412.5,-383 267.5,-383 267.5,-347 412.5,-347 412.5,-383"/>
<text xml:space="preserve" text-anchor="middle" x="340" y="-359.75" font-family="Helvetica,sans-Serif" font-size="15.00">STL Decomposition</text>
</g>
<!-- data_input&#45;&gt;stl_decomp -->
<g id="edge2" class="edge">
<title>data_input:header&#45;&gt;stl_decomp</title>
<path fill="none" stroke="#d98880" stroke-width="1.5" d="M151.5,-365C185.42,-365 222.78,-365 255.17,-365"/>
<polygon fill="#d98880" stroke="#d98880" stroke-width="1.5" points="255.06,-368.5 265.06,-365 255.06,-361.5 255.06,-368.5"/>
</g>
<!-- residual -->
<g id="node3" class="node">
<title>residual</title>
<polygon fill="white" stroke="#566573" points="820.5,-383 525.5,-383 525.5,-347 820.5,-347 820.5,-383"/>
<polygon fill="none" stroke="#566573" points="824.5,-387 521.5,-387 521.5,-343 824.5,-343 824.5,-387"/>
<text xml:space="preserve" text-anchor="middle" x="673" y="-359.75" font-family="Helvetica,sans-Serif" font-size="15.00">&lt;b&gt;R&lt;sub&gt;t&lt;/sub&gt;&lt;/b&gt; (Residual Series)</text>
</g>
<!-- stl_decomp&#45;&gt;residual -->
<g id="edge3" class="edge">
<title>stl_decomp&#45;&gt;residual</title>
<path fill="none" stroke="#d98880" stroke-width="1.5" d="M412.82,-365C441.31,-365 475.32,-365 509.18,-365"/>
<polygon fill="#d98880" stroke="#d98880" stroke-width="1.5" points="508.87,-368.5 518.87,-365 508.87,-361.5 508.87,-368.5"/>
</g>
<!-- lof_score -->
<g id="node4" class="node">
<title>lof_score</title>
<polygon fill="#85c1e9" stroke="#566573" points="1094.25,-383 933.5,-383 933.5,-347 1094.25,-347 1094.25,-383"/>
<text xml:space="preserve" text-anchor="middle" x="1013.88" y="-359.75" font-family="Helvetica,sans-Serif" font-size="15.00">LOF Anomaly Scoring</text>
</g>
<!-- residual&#45;&gt;lof_score -->
<g id="edge4" class="edge">
<title>residual&#45;&gt;lof_score</title>
<path fill="none" stroke="#d98880" stroke-width="1.5" d="M824.61,-365C857.55,-365 891.44,-365 921.24,-365"/>
<polygon fill="#d98880" stroke="#d98880" stroke-width="1.5" points="921.04,-368.5 931.04,-365 921.04,-361.5 921.04,-368.5"/>
</g>
<!-- pseudo_label -->
<g id="node5" class="node">
<title>pseudo_label</title>
<polygon fill="white" stroke="#566573" points="1616.75,-383 1305.25,-383 1305.25,-347 1616.75,-347 1616.75,-383"/>
<polygon fill="none" stroke="#566573" points="1620.75,-387 1301.25,-387 1301.25,-343 1620.75,-343 1620.75,-387"/>
<text xml:space="preserve" text-anchor="middle" x="1461" y="-359.75" font-family="Helvetica,sans-Serif" font-size="15.00">&lt;b&gt;L&lt;sub&gt;p&lt;/sub&gt;&lt;/b&gt; (Pseudo&#45;Label Set)</text>
</g>
<!-- lof_score&#45;&gt;pseudo_label -->
<g id="edge5" class="edge">
<title>lof_score&#45;&gt;pseudo_label</title>
<path fill="none" stroke="#d98880" stroke-width="1.5" d="M1094.71,-365C1148.76,-365 1222.23,-365 1289.11,-365"/>
<polygon fill="#d98880" stroke="#d98880" stroke-width="1.5" points="1288.81,-368.5 1298.81,-365 1288.81,-361.5 1288.81,-368.5"/>
</g>
<!-- replay_buffer -->
<g id="node8" class="node">
<title>replay_buffer</title>
<polygon fill="white" stroke="#566573" points="1969,-222 1820.25,-222 1820.25,-178 1969,-178 1969,-222"/>
<text xml:space="preserve" text-anchor="middle" x="1894.62" y="-203.75" font-family="Helvetica,sans-Serif" font-size="15.00">Experience Replay</text>
<text xml:space="preserve" text-anchor="middle" x="1894.62" y="-185.75" font-family="Helvetica,sans-Serif" font-size="15.00">(with Expert Labels)</text>
</g>
<!-- pseudo_label&#45;&gt;replay_buffer -->
<g id="edge6" class="edge">
<title>pseudo_label&#45;&gt;replay_buffer</title>
<path fill="none" stroke="#d98880" stroke-width="1.5" d="M1606.84,-342.6C1614.3,-340.57 1621.65,-338.38 1628.75,-336 1709.97,-308.79 1797.03,-259.82 1848.33,-228.66"/>
<polygon fill="#d98880" stroke="#d98880" stroke-width="1.5" points="1850.09,-231.69 1856.79,-223.48 1846.43,-225.72 1850.09,-231.69"/>
<text xml:space="preserve" text-anchor="middle" x="1720.5" y="-318.54" font-family="Helvetica,sans-Serif" font-size="12.00"> Inject Initial Data</text>
</g>
<!-- bilstm -->
<g id="node6" class="node">
<title>bilstm</title>
<polygon fill="#85c1e9" stroke="#566573" points="1080.75,-60 947,-60 947,-24 1080.75,-24 1080.75,-60"/>
<text xml:space="preserve" text-anchor="middle" x="1013.88" y="-36.75" font-family="Helvetica,sans-Serif" font-size="15.00">Bi&#45;LSTM Encoder</text>
</g>
<!-- q_network -->
<g id="node7" class="node">
<title>q_network</title>
<polygon fill="#85c1e9" stroke="#566573" points="1514.38,-60 1407.62,-60 1407.62,-24 1514.38,-24 1514.38,-60"/>
<text xml:space="preserve" text-anchor="middle" x="1461" y="-36.75" font-family="Helvetica,sans-Serif" font-size="15.00">DQN &amp; Policy</text>
</g>
<!-- bilstm&#45;&gt;q_network -->
<g id="edge1" class="edge">
<title>bilstm&#45;&gt;q_network</title>
<path fill="none" stroke="#d98880" stroke-width="1.5" d="M1081.03,-42C1165.66,-42 1311.3,-42 1395.24,-42"/>
<polygon fill="#d98880" stroke="#d98880" stroke-width="1.5" points="1395.15,-45.5 1405.15,-42 1395.15,-38.5 1395.15,-45.5"/>
</g>
<!-- q_network&#45;&gt;replay_buffer -->
<g id="edge8" class="edge">
<title>q_network&#45;&gt;replay_buffer</title>
<path fill="none" stroke="#d98880" stroke-width="1.5" d="M1514.82,-44.34C1548.12,-46.93 1591.68,-52.42 1628.75,-64 1710.98,-89.68 1798.39,-139.56 1849.4,-171.25"/>
<polygon fill="#d98880" stroke="#d98880" stroke-width="1.5" points="1847.46,-174.16 1857.79,-176.51 1851.18,-168.23 1847.46,-174.16"/>
<text xml:space="preserve" text-anchor="middle" x="1720.5" y="-124.49" font-family="Helvetica,sans-Serif" font-size="12.00"> Action a</text>
</g>
<!-- expert -->
<g id="node9" class="node">
<title>expert</title>
<ellipse fill="white" stroke="#566573" cx="1461" cy="-267" rx="81.32" ry="18.38"/>
<text xml:space="preserve" text-anchor="middle" x="1461" y="-261.75" font-family="Helvetica,sans-Serif" font-size="15.00">Domain Expert</text>
</g>
<!-- q_network&#45;&gt;expert -->
<g id="edge9" class="edge">
<title>q_network&#45;&gt;expert</title>
<path fill="none" stroke="#d98880" stroke-width="1.5" stroke-dasharray="5,2" d="M1407.35,-41.56C1340.94,-44.39 1231.62,-61.03 1190.79,-136.88 1149.3,-213.96 1278.86,-245.92 1372.69,-258.78"/>
<polygon fill="#d98880" stroke="#d98880" stroke-width="1.5" points="1372.18,-262.24 1382.55,-260.07 1373.09,-255.3 1372.18,-262.24"/>
<text xml:space="preserve" text-anchor="middle" x="1197.75" y="-139.72" font-family="Helvetica,sans-Serif" font-size="12.00"> Uncertainty Query</text>
</g>
<!-- replay_buffer&#45;&gt;bilstm -->
<g id="edge7" class="edge">
<title>replay_buffer&#45;&gt;bilstm</title>
<path fill="none" stroke="#d98880" stroke-width="1.5" d="M1819.79,-199.39C1643.66,-197.53 1209.02,-190.4 1148.25,-165 1100.21,-144.92 1058.59,-99.48 1035.14,-69.81"/>
<polygon fill="#d98880" stroke="#d98880" stroke-width="1.5" points="1038.16,-68 1029.29,-62.21 1032.62,-72.27 1038.16,-68"/>
<text xml:space="preserve" text-anchor="middle" x="1461" y="-199.04" font-family="Helvetica,sans-Serif" font-size="12.00"> Sampled Batch s</text>
</g>
<!-- expert&#45;&gt;replay_buffer -->
<g id="edge10" class="edge">
<title>expert&#45;&gt;replay_buffer</title>
<path fill="none" stroke="#d98880" stroke-width="1.5" stroke-dasharray="5,2" d="M1528.97,-256.6C1604.05,-244.95 1725.98,-226.02 1807.95,-213.3"/>
<polygon fill="#d98880" stroke="#d98880" stroke-width="1.5" points="1808.4,-216.77 1817.75,-211.78 1807.33,-209.85 1808.4,-216.77"/>
</g>
</g>
</svg>
