<?xml version="1.0" encoding="UTF-8" standalone="no"?>
<!DOCTYPE svg PUBLIC "-//W3C//DTD SVG 1.1//EN"
 "http://www.w3.org/Graphics/SVG/1.1/DTD/svg11.dtd">
<!-- Generated by graphviz version 13.1.0 (20250701.0955)
 -->
<!-- Title: LOF_Flowchart_Fixed Pages: 1 -->
<svg width="468pt" height="843pt"
 viewBox="0.00 0.00 468.00 843.00" xmlns="http://www.w3.org/2000/svg" xmlns:xlink="http://www.w3.org/1999/xlink">
<g id="graph0" class="graph" transform="scale(1 1) rotate(0) translate(4 838.75)">
<title>LOF_Flowchart_Fixed</title>
<polygon fill="white" stroke="none" points="-4,4 -4,-838.75 463.5,-838.75 463.5,4 -4,4"/>
<text xml:space="preserve" text-anchor="middle" x="229.75" y="-813.65" font-family="Helvetica,sans-Serif" font-size="18.00">LOF&#45;Based Pseudo&#45;Label Generation from Residuals</text>
<!-- input_rt -->
<g id="node1" class="node">
<title>input_rt</title>
<path fill="#ffffff" stroke="#444444" d="M329.62,-802.48C329.62,-804.28 284.86,-805.75 229.75,-805.75 174.64,-805.75 129.88,-804.28 129.88,-802.48 129.88,-802.48 129.88,-773.02 129.88,-773.02 129.88,-771.22 174.64,-769.75 229.75,-769.75 284.86,-769.75 329.62,-771.22 329.62,-773.02 329.62,-773.02 329.62,-802.48 329.62,-802.48"/>
<path fill="none" stroke="#444444" d="M329.62,-802.48C329.62,-800.67 284.86,-799.2 229.75,-799.2 174.64,-799.2 129.88,-800.67 129.88,-802.48"/>
<text xml:space="preserve" text-anchor="middle" x="229.75" y="-782.33" font-family="Helvetica,sans-Serif" font-size="14.00">Purified Residual Series (Rₜ)</text>
</g>
<!-- windowing -->
<g id="node2" class="node">
<title>windowing</title>
<polygon fill="#ddeeff" stroke="#444444" points="314.62,-710.75 144.88,-710.75 144.88,-674.75 314.62,-674.75 314.62,-710.75"/>
<text xml:space="preserve" text-anchor="middle" x="229.75" y="-687.33" font-family="Helvetica,sans-Serif" font-size="14.00">Sliding Window over Rₜ</text>
</g>
<!-- input_rt&#45;&gt;windowing -->
<g id="edge1" class="edge">
<title>input_rt&#45;&gt;windowing</title>
<path fill="none" stroke="#333333" d="M229.75,-769.26C229.75,-756.14 229.75,-737.89 229.75,-722.62"/>
<polygon fill="#333333" stroke="#333333" points="233.25,-722.68 229.75,-712.68 226.25,-722.68 233.25,-722.68"/>
</g>
<!-- k_dist -->
<g id="node3" class="node">
<title>k_dist</title>
<polygon fill="#ddeeff" stroke="#444444" points="401.25,-615.75 58.25,-615.75 58.25,-576.25 401.25,-576.25 401.25,-615.75"/>
<text xml:space="preserve" text-anchor="middle" x="229.75" y="-598.45" font-family="Helvetica,sans-Serif" font-size="14.00">1. Calculate k&#45;distance</text>
<text xml:space="preserve" text-anchor="middle" x="229.75" y="-582.7" font-family="Helvetica,sans-Serif" font-size="14.00">For each point p, find distance to k&#45;th nearest neighbor</text>
</g>
<!-- windowing&#45;&gt;k_dist -->
<g id="edge2" class="edge">
<title>windowing&#45;&gt;k_dist</title>
<path fill="none" stroke="#333333" d="M229.75,-674.37C229.75,-661.26 229.75,-642.94 229.75,-627.42"/>
<polygon fill="#333333" stroke="#333333" points="233.25,-627.74 229.75,-617.74 226.25,-627.74 233.25,-627.74"/>
</g>
<!-- reach_dist -->
<g id="node4" class="node">
<title>reach_dist</title>
<polygon fill="#ddeeff" stroke="#444444" points="340.12,-517.25 119.38,-517.25 119.38,-477.75 340.12,-477.75 340.12,-517.25"/>
<text xml:space="preserve" text-anchor="middle" x="229.75" y="-499.95" font-family="Helvetica,sans-Serif" font-size="14.00">2. Calculate Reachability Distance</text>
<text xml:space="preserve" text-anchor="middle" x="229.75" y="-484.2" font-family="Helvetica,sans-Serif" font-size="14.00">max(k&#45;distance(o), d(p,o))</text>
</g>
<!-- k_dist&#45;&gt;reach_dist -->
<g id="edge3" class="edge">
<title>k_dist&#45;&gt;reach_dist</title>
<path fill="none" stroke="#333333" d="M229.75,-575.93C229.75,-562.45 229.75,-544.1 229.75,-528.65"/>
<polygon fill="#333333" stroke="#333333" points="233.25,-529.04 229.75,-519.04 226.25,-529.04 233.25,-529.04"/>
</g>
<!-- lrd -->
<g id="node5" class="node">
<title>lrd</title>
<polygon fill="#ddeeff" stroke="#444444" points="374.25,-418.75 85.25,-418.75 85.25,-379.25 374.25,-379.25 374.25,-418.75"/>
<text xml:space="preserve" text-anchor="middle" x="229.75" y="-401.45" font-family="Helvetica,sans-Serif" font-size="14.00">3. Calculate Local Reachability Density (LRD)</text>
<text xml:space="preserve" text-anchor="middle" x="229.75" y="-385.7" font-family="Helvetica,sans-Serif" font-size="14.00">Inverse of average reachability distance</text>
</g>
<!-- reach_dist&#45;&gt;lrd -->
<g id="edge4" class="edge">
<title>reach_dist&#45;&gt;lrd</title>
<path fill="none" stroke="#333333" d="M229.75,-477.43C229.75,-463.95 229.75,-445.6 229.75,-430.15"/>
<polygon fill="#333333" stroke="#333333" points="233.25,-430.54 229.75,-420.54 226.25,-430.54 233.25,-430.54"/>
</g>
<!-- lof_score -->
<g id="node6" class="node">
<title>lof_score</title>
<polygon fill="#ffeedd" stroke="#444444" points="367.12,-320.25 92.38,-320.25 92.38,-249 367.12,-249 367.12,-320.25"/>
<text xml:space="preserve" text-anchor="middle" x="229.75" y="-302.95" font-family="Helvetica,sans-Serif" font-size="14.00">4. Calculate Local Outlier Factor (LOF)</text>
<text xml:space="preserve" text-anchor="middle" x="229.75" y="-271.2" font-family="Helvetica,sans-Serif" font-size="14.00">LOFₖ(p) = (Σ LRD(o) / |Nₖ(p)|) / LRD(p)</text>
<text xml:space="preserve" text-anchor="middle" x="229.75" y="-255.45" font-family="Helvetica,sans-Serif" font-size="14.00">for o in Nₖ(p)</text>
</g>
<!-- lrd&#45;&gt;lof_score -->
<g id="edge5" class="edge">
<title>lrd&#45;&gt;lof_score</title>
<path fill="none" stroke="#333333" d="M229.75,-378.94C229.75,-366.01 229.75,-348.35 229.75,-331.86"/>
<polygon fill="#333333" stroke="#333333" points="233.25,-332.23 229.75,-322.23 226.25,-332.23 233.25,-332.23"/>
</g>
<!-- threshold -->
<g id="node7" class="node">
<title>threshold</title>
<polygon fill="#ddeeff" stroke="#444444" points="229.75,-177.5 0,-138 229.75,-98.5 459.5,-138 229.75,-177.5"/>
<text xml:space="preserve" text-anchor="middle" x="229.75" y="-140.45" font-family="Helvetica,sans-Serif" font-size="14.00">Binarize Scores into Pseudo&#45;Labels</text>
<text xml:space="preserve" text-anchor="middle" x="229.75" y="-124.7" font-family="Helvetica,sans-Serif" font-size="14.00">(e.g., using μ + 3σ threshold)</text>
</g>
<!-- lof_score&#45;&gt;threshold -->
<g id="edge6" class="edge">
<title>lof_score&#45;&gt;threshold</title>
<path fill="none" stroke="#333333" d="M229.75,-248.62C229.75,-230.81 229.75,-208.85 229.75,-189.27"/>
<polygon fill="#333333" stroke="#333333" points="233.25,-189.27 229.75,-179.27 226.25,-189.27 233.25,-189.27"/>
<text xml:space="preserve" text-anchor="middle" x="289.75" y="-209.55" font-family="Helvetica,sans-Serif" font-size="11.00">Window Anomaly Scores</text>
</g>
<!-- output_labels -->
<g id="node8" class="node">
<title>output_labels</title>
<polygon fill="#ffffff" stroke="#444444" points="322.12,-39.5 319.12,-43.5 298.12,-43.5 295.12,-39.5 137.38,-39.5 137.38,0 322.12,0 322.12,-39.5"/>
<text xml:space="preserve" text-anchor="middle" x="229.75" y="-22.2" font-family="Helvetica,sans-Serif" font-size="14.00">High&#45;Quality Pseudo&#45;Labels</text>
<text xml:space="preserve" text-anchor="middle" x="229.75" y="-6.45" font-family="Helvetica,sans-Serif" font-size="14.00">(Normal=0, Abnormal=1)</text>
</g>
<!-- threshold&#45;&gt;output_labels -->
<g id="edge7" class="edge">
<title>threshold&#45;&gt;output_labels</title>
<path fill="none" stroke="#333333" d="M229.75,-98.29C229.75,-82.91 229.75,-65.49 229.75,-51.06"/>
<polygon fill="#333333" stroke="#333333" points="233.25,-51.26 229.75,-41.26 226.25,-51.26 233.25,-51.26"/>
</g>
</g>
</svg>
