<?xml version="1.0" encoding="UTF-8" standalone="no"?>
<!DOCTYPE svg PUBLIC "-//W3C//DTD SVG 1.1//EN"
 "http://www.w3.org/Graphics/SVG/1.1/DTD/svg11.dtd">
<!-- Generated by graphviz version 13.1.0 (20250701.0955)
 -->
<!-- Title: LOF_Flowchart Pages: 1 -->
<svg width="468pt" height="808pt"
 viewBox="0.00 0.00 468.00 808.00" xmlns="http://www.w3.org/2000/svg" xmlns:xlink="http://www.w3.org/1999/xlink">
<g id="graph0" class="graph" transform="scale(1 1) rotate(0) translate(4 803.5)">
<title>LOF_Flowchart</title>
<polygon fill="white" stroke="none" points="-4,4 -4,-803.5 463.5,-803.5 463.5,4 -4,4"/>
<text xml:space="preserve" text-anchor="middle" x="229.75" y="-778.4" font-family="Helvetica,sans-Serif" font-size="18.00">LOF&#45;Based Pseudo&#45;Label Generation from Residuals</text>
<!-- input_rt -->
<g id="node1" class="node">
<title>input_rt</title>
<path fill="#ffffff" stroke="#444444" d="M329.62,-767.23C329.62,-769.03 284.86,-770.5 229.75,-770.5 174.64,-770.5 129.88,-769.03 129.88,-767.23 129.88,-767.23 129.88,-737.77 129.88,-737.77 129.88,-735.97 174.64,-734.5 229.75,-734.5 284.86,-734.5 329.62,-735.97 329.62,-737.77 329.62,-737.77 329.62,-767.23 329.62,-767.23"/>
<path fill="none" stroke="#444444" d="M329.62,-767.23C329.62,-765.42 284.86,-763.95 229.75,-763.95 174.64,-763.95 129.88,-765.42 129.88,-767.23"/>
<text xml:space="preserve" text-anchor="middle" x="229.75" y="-747.08" font-family="Helvetica,sans-Serif" font-size="14.00">Purified Residual Series (Rₜ)</text>
</g>
<!-- windowing -->
<g id="node2" class="node">
<title>windowing</title>
<polygon fill="#ddeeff" stroke="#444444" points="314.62,-675.5 144.88,-675.5 144.88,-639.5 314.62,-639.5 314.62,-675.5"/>
<text xml:space="preserve" text-anchor="middle" x="229.75" y="-652.08" font-family="Helvetica,sans-Serif" font-size="14.00">Sliding Window over Rₜ</text>
</g>
<!-- input_rt&#45;&gt;windowing -->
<g id="edge1" class="edge">
<title>input_rt&#45;&gt;windowing</title>
<path fill="none" stroke="#333333" d="M229.75,-734.01C229.75,-720.89 229.75,-702.64 229.75,-687.37"/>
<polygon fill="#333333" stroke="#333333" points="233.25,-687.43 229.75,-677.43 226.25,-687.43 233.25,-687.43"/>
</g>
<!-- k_dist -->
<g id="node3" class="node">
<title>k_dist</title>
<polygon fill="#ddeeff" stroke="#444444" points="401.25,-580.5 58.25,-580.5 58.25,-541 401.25,-541 401.25,-580.5"/>
<text xml:space="preserve" text-anchor="middle" x="229.75" y="-563.2" font-family="Helvetica,sans-Serif" font-size="14.00">1. Calculate k&#45;distance</text>
<text xml:space="preserve" text-anchor="middle" x="229.75" y="-547.45" font-family="Helvetica,sans-Serif" font-size="14.00">For each point p, find distance to k&#45;th nearest neighbor</text>
</g>
<!-- windowing&#45;&gt;k_dist -->
<g id="edge2" class="edge">
<title>windowing&#45;&gt;k_dist</title>
<path fill="none" stroke="#333333" d="M229.75,-639.12C229.75,-626.01 229.75,-607.69 229.75,-592.17"/>
<polygon fill="#333333" stroke="#333333" points="233.25,-592.49 229.75,-582.49 226.25,-592.49 233.25,-592.49"/>
</g>
<!-- reach_dist -->
<g id="node4" class="node">
<title>reach_dist</title>
<polygon fill="#ddeeff" stroke="#444444" points="340.12,-482 119.38,-482 119.38,-442.5 340.12,-442.5 340.12,-482"/>
<text xml:space="preserve" text-anchor="middle" x="229.75" y="-464.7" font-family="Helvetica,sans-Serif" font-size="14.00">2. Calculate Reachability Distance</text>
<text xml:space="preserve" text-anchor="middle" x="229.75" y="-448.95" font-family="Helvetica,sans-Serif" font-size="14.00">max(k&#45;distance(o), d(p,o))</text>
</g>
<!-- k_dist&#45;&gt;reach_dist -->
<g id="edge3" class="edge">
<title>k_dist&#45;&gt;reach_dist</title>
<path fill="none" stroke="#333333" d="M229.75,-540.68C229.75,-527.2 229.75,-508.85 229.75,-493.4"/>
<polygon fill="#333333" stroke="#333333" points="233.25,-493.79 229.75,-483.79 226.25,-493.79 233.25,-493.79"/>
</g>
<!-- lrd -->
<g id="node5" class="node">
<title>lrd</title>
<polygon fill="#ddeeff" stroke="#444444" points="374.25,-383.5 85.25,-383.5 85.25,-344 374.25,-344 374.25,-383.5"/>
<text xml:space="preserve" text-anchor="middle" x="229.75" y="-366.2" font-family="Helvetica,sans-Serif" font-size="14.00">3. Calculate Local Reachability Density (LRD)</text>
<text xml:space="preserve" text-anchor="middle" x="229.75" y="-350.45" font-family="Helvetica,sans-Serif" font-size="14.00">Inverse of average reachability distance</text>
</g>
<!-- reach_dist&#45;&gt;lrd -->
<g id="edge4" class="edge">
<title>reach_dist&#45;&gt;lrd</title>
<path fill="none" stroke="#333333" d="M229.75,-442.18C229.75,-428.7 229.75,-410.35 229.75,-394.9"/>
<polygon fill="#333333" stroke="#333333" points="233.25,-395.29 229.75,-385.29 226.25,-395.29 233.25,-395.29"/>
</g>
<!-- lof_score -->
<g id="node6" class="node">
<title>lof_score</title>
<polygon fill="#ffeedd" stroke="#444444" points="256.75,-285 202.75,-285 202.75,-249 256.75,-249 256.75,-285"/>
</g>
<!-- lrd&#45;&gt;lof_score -->
<g id="edge5" class="edge">
<title>lrd&#45;&gt;lof_score</title>
<path fill="none" stroke="#333333" d="M229.75,-343.58C229.75,-330.09 229.75,-311.82 229.75,-296.62"/>
<polygon fill="#333333" stroke="#333333" points="233.25,-296.75 229.75,-286.75 226.25,-296.75 233.25,-296.75"/>
</g>
<!-- threshold -->
<g id="node7" class="node">
<title>threshold</title>
<polygon fill="#ddeeff" stroke="#444444" points="229.75,-177.5 0,-138 229.75,-98.5 459.5,-138 229.75,-177.5"/>
<text xml:space="preserve" text-anchor="middle" x="229.75" y="-140.45" font-family="Helvetica,sans-Serif" font-size="14.00">Binarize Scores into Pseudo&#45;Labels</text>
<text xml:space="preserve" text-anchor="middle" x="229.75" y="-124.7" font-family="Helvetica,sans-Serif" font-size="14.00">(e.g., using μ + 3σ threshold)</text>
</g>
<!-- lof_score&#45;&gt;threshold -->
<g id="edge6" class="edge">
<title>lof_score&#45;&gt;threshold</title>
<path fill="none" stroke="#333333" d="M229.75,-248.61C229.75,-233.3 229.75,-210.25 229.75,-189.22"/>
<polygon fill="#333333" stroke="#333333" points="233.25,-189.33 229.75,-179.33 226.25,-189.33 233.25,-189.33"/>
<text xml:space="preserve" text-anchor="middle" x="289.75" y="-209.55" font-family="Helvetica,sans-Serif" font-size="11.00">Window Anomaly Scores</text>
</g>
<!-- output_labels -->
<g id="node8" class="node">
<title>output_labels</title>
<polygon fill="#ffffff" stroke="#444444" points="322.12,-39.5 319.12,-43.5 298.12,-43.5 295.12,-39.5 137.38,-39.5 137.38,0 322.12,0 322.12,-39.5"/>
<text xml:space="preserve" text-anchor="middle" x="229.75" y="-22.2" font-family="Helvetica,sans-Serif" font-size="14.00">High&#45;Quality Pseudo&#45;Labels</text>
<text xml:space="preserve" text-anchor="middle" x="229.75" y="-6.45" font-family="Helvetica,sans-Serif" font-size="14.00">(Normal=0, Abnormal=1)</text>
</g>
<!-- threshold&#45;&gt;output_labels -->
<g id="edge7" class="edge">
<title>threshold&#45;&gt;output_labels</title>
<path fill="none" stroke="#333333" d="M229.75,-98.29C229.75,-82.91 229.75,-65.49 229.75,-51.06"/>
<polygon fill="#333333" stroke="#333333" points="233.25,-51.26 229.75,-41.26 226.25,-51.26 233.25,-51.26"/>
</g>
</g>
</svg>
