<?xml version="1.0" encoding="UTF-8" standalone="no"?>
<!DOCTYPE svg PUBLIC "-//W3C//DTD SVG 1.1//EN"
 "http://www.w3.org/Graphics/SVG/1.1/DTD/svg11.dtd">
<!-- Generated by graphviz version 13.1.0 (20250701.0955)
 -->
<!-- Title: STL_System_Architecture Pages: 1 -->
<svg width="2412pt" height="699pt"
 viewBox="0.00 0.00 2412.00 699.00" xmlns="http://www.w3.org/2000/svg" xmlns:xlink="http://www.w3.org/1999/xlink">
<g id="graph0" class="graph" transform="scale(1 1) rotate(0) translate(4 694.5)">
<title>STL_System_Architecture</title>
<polygon fill="white" stroke="none" points="-4,4 -4,-694.5 2408,-694.5 2408,4 -4,4"/>
<text xml:space="preserve" text-anchor="middle" x="1202" y="-659.9" font-family="Helvetica,sans-Serif" font-size="28.00">一个融合分解&#45;密度与强化引导主动学习的异常检测框架</text>
<g id="clust1" class="cluster">
<title>cluster_phase1</title>
<path fill="#e6f0fa" stroke="#b0c4de" d="M20,-313C20,-313 567.38,-313 567.38,-313 573.38,-313 579.38,-319 579.38,-325 579.38,-325 579.38,-542 579.38,-542 579.38,-548 573.38,-554 567.38,-554 567.38,-554 20,-554 20,-554 14,-554 8,-548 8,-542 8,-542 8,-325 8,-325 8,-319 14,-313 20,-313"/>
<text xml:space="preserve" text-anchor="middle" x="293.69" y="-531" font-family="Helvetica,sans-Serif" font-size="20.00">阶段一: 信号分解与预处理</text>
</g>
<g id="clust2" class="cluster">
<title>cluster_phase2</title>
<path fill="#f2ebf2" stroke="#d8bfd8" d="M870.75,-387C870.75,-387 1430.69,-387 1430.69,-387 1436.69,-387 1442.69,-393 1442.69,-399 1442.69,-399 1442.69,-468 1442.69,-468 1442.69,-474 1436.69,-480 1430.69,-480 1430.69,-480 870.75,-480 870.75,-480 864.75,-480 858.75,-474 858.75,-468 858.75,-468 858.75,-399 858.75,-399 858.75,-393 864.75,-387 870.75,-387"/>
<text xml:space="preserve" text-anchor="middle" x="1150.72" y="-457" font-family="Helvetica,sans-Serif" font-size="20.00">阶段二: 基于密度的异常评分</text>
</g>
<g id="clust3" class="cluster">
<title>cluster_phase3</title>
<path fill="#e9f5e9" stroke="#a2cda2" d="M1070.75,-8C1070.75,-8 2384,-8 2384,-8 2390,-8 2396,-14 2396,-20 2396,-20 2396,-359 2396,-359 2396,-365 2390,-371 2384,-371 2384,-371 1070.75,-371 1070.75,-371 1064.75,-371 1058.75,-365 1058.75,-359 1058.75,-359 1058.75,-20 1058.75,-20 1058.75,-14 1064.75,-8 1070.75,-8"/>
<text xml:space="preserve" text-anchor="middle" x="1727.37" y="-348" font-family="Helvetica,sans-Serif" font-size="20.00">阶段三: 强化引导与主动学习</text>
</g>
<g id="clust4" class="cluster">
<title>cluster_agent</title>
<polygon fill="#ffffff" stroke="#6b8e23" points="1066.75,-16 1066.75,-101 1826.59,-101 1826.59,-16 1066.75,-16"/>
<text xml:space="preserve" text-anchor="middle" x="1446.67" y="-78" font-family="Helvetica,sans-Serif" font-size="20.00">RLAD 智能体 (Agent)</text>
</g>
<g id="clust5" class="cluster">
<title>cluster_legend</title>
<polygon fill="none" stroke="#333333" points="26.75,-562 26.75,-643 977.75,-643 977.75,-562 26.75,-562"/>
<text xml:space="preserve" text-anchor="middle" x="502.25" y="-621.9" font-family="Helvetica,sans-Serif" font-size="18.00">图例 (Legend)</text>
</g>
<!-- data_input -->
<g id="node1" class="node">
<title>data_input</title>
<path fill="#ffffff" stroke="black" d="M143,-441.06C143,-443.89 114.54,-446.19 79.5,-446.19 44.46,-446.19 16,-443.89 16,-441.06 16,-441.06 16,-394.94 16,-394.94 16,-392.11 44.46,-389.81 79.5,-389.81 114.54,-389.81 143,-392.11 143,-394.94 143,-394.94 143,-441.06 143,-441.06"/>
<path fill="none" stroke="black" d="M143,-441.06C143,-438.23 114.54,-435.94 79.5,-435.94 44.46,-435.94 16,-438.23 16,-441.06"/>
<text xml:space="preserve" text-anchor="middle" x="79.5" y="-419.3" font-family="Helvetica,sans-Serif" font-size="16.00">原始压力数据</text>
<text xml:space="preserve" text-anchor="middle" x="79.5" y="-405.05" font-family="Helvetica,sans-Serif" font-size="16.00">(Time Series Y)</text>
</g>
<!-- stl_decomp -->
<g id="node2" class="node">
<title>stl_decomp</title>
<path fill="lightgrey" stroke="black" d="M339.75,-440.75C339.75,-440.75 257,-440.75 257,-440.75 251,-440.75 245,-434.75 245,-428.75 245,-428.75 245,-407.25 245,-407.25 245,-401.25 251,-395.25 257,-395.25 257,-395.25 339.75,-395.25 339.75,-395.25 345.75,-395.25 351.75,-401.25 351.75,-407.25 351.75,-407.25 351.75,-428.75 351.75,-428.75 351.75,-434.75 345.75,-440.75 339.75,-440.75"/>
<text xml:space="preserve" text-anchor="middle" x="298.38" y="-421.55" font-family="Helvetica,sans-Serif" font-size="16.00">STL 分解</text>
<text xml:space="preserve" text-anchor="middle" x="298.38" y="-402.8" font-family="Helvetica,sans-Serif" font-size="16.00"> robust=True</text>
</g>
<!-- data_input&#45;&gt;stl_decomp -->
<g id="edge1" class="edge">
<title>data_input&#45;&gt;stl_decomp</title>
<path fill="none" stroke="#555555" d="M143.4,-418C143.4,-418 233.24,-418 233.24,-418"/>
<polygon fill="#555555" stroke="#555555" points="233.24,-421.5 243.24,-418 233.24,-414.5 233.24,-421.5"/>
</g>
<!-- residual -->
<g id="node3" class="node">
<title>residual</title>
<polygon fill="#f5f5f5" stroke="#a9a9a9" stroke-dasharray="5,2" points="571.38,-436 455.62,-436 455.62,-400 571.38,-400 571.38,-436"/>
<text xml:space="preserve" text-anchor="middle" x="513.5" y="-412.18" font-family="Helvetica,sans-Serif" font-size="16.00">残差分量 (Rt)</text>
</g>
<!-- stl_decomp&#45;&gt;residual -->
<g id="edge2" class="edge">
<title>stl_decomp&#45;&gt;residual</title>
<path fill="none" stroke="#555555" stroke-width="2" d="M352.11,-418C352.11,-418 443.66,-418 443.66,-418"/>
<polygon fill="#555555" stroke="#555555" stroke-width="2" points="442.15,-421.5 452.15,-418 442.15,-414.5 442.15,-421.5"/>
</g>
<!-- trend_out -->
<g id="node4" class="node">
<title>trend_out</title>
<path fill="lightgrey" stroke="none" d="M535.38,-515C535.38,-515 491.62,-515 491.62,-515 485.62,-515 479.62,-509 479.62,-503 479.62,-503 479.62,-491 479.62,-491 479.62,-485 485.62,-479 491.62,-479 491.62,-479 535.38,-479 535.38,-479 541.38,-479 547.38,-485 547.38,-491 547.38,-491 547.38,-503 547.38,-503 547.38,-509 541.38,-515 535.38,-515"/>
<text xml:space="preserve" text-anchor="middle" x="513.5" y="-488.93" font-family="Helvetica,sans-Serif" font-size="16.00">趋势项</text>
</g>
<!-- stl_decomp&#45;&gt;trend_out -->
<g id="edge3" class="edge">
<title>stl_decomp&#45;&gt;trend_out</title>
<path fill="none" stroke="#555555" stroke-dasharray="5,2" d="M298,-440.85C298,-464.18 298,-497 298,-497 298,-497 419.22,-497 479.83,-497"/>
</g>
<!-- season_out -->
<g id="node5" class="node">
<title>season_out</title>
<path fill="lightgrey" stroke="none" d="M544,-357C544,-357 483,-357 483,-357 477,-357 471,-351 471,-345 471,-345 471,-333 471,-333 471,-327 477,-321 483,-321 483,-321 544,-321 544,-321 550,-321 556,-327 556,-333 556,-333 556,-345 556,-345 556,-351 550,-357 544,-357"/>
<text xml:space="preserve" text-anchor="middle" x="513.5" y="-330.93" font-family="Helvetica,sans-Serif" font-size="16.00">季节性项</text>
</g>
<!-- stl_decomp&#45;&gt;season_out -->
<g id="edge4" class="edge">
<title>stl_decomp&#45;&gt;season_out</title>
<path fill="none" stroke="#555555" stroke-dasharray="5,2" d="M298,-395.15C298,-371.82 298,-339 298,-339 298,-339 408.42,-339 471.18,-339"/>
</g>
<!-- lof_score -->
<g id="node6" class="node">
<title>lof_score</title>
<path fill="lightgrey" stroke="black" d="M975.75,-440.75C975.75,-440.75 878.75,-440.75 878.75,-440.75 872.75,-440.75 866.75,-434.75 866.75,-428.75 866.75,-428.75 866.75,-407.25 866.75,-407.25 866.75,-401.25 872.75,-395.25 878.75,-395.25 878.75,-395.25 975.75,-395.25 975.75,-395.25 981.75,-395.25 987.75,-401.25 987.75,-407.25 987.75,-407.25 987.75,-428.75 987.75,-428.75 987.75,-434.75 981.75,-440.75 975.75,-440.75"/>
<text xml:space="preserve" text-anchor="middle" x="927.25" y="-421.55" font-family="Helvetica,sans-Serif" font-size="16.00">LOF 异常评分</text>
<text xml:space="preserve" text-anchor="middle" x="927.25" y="-402.8" font-family="Helvetica,sans-Serif" font-size="16.00">LOF(Rt)</text>
</g>
<!-- residual&#45;&gt;lof_score -->
<g id="edge16" class="edge">
<title>residual&#45;&gt;lof_score</title>
<path fill="none" stroke="#555555" stroke-width="2" d="M571.47,-418C571.47,-418 854.8,-418 854.8,-418"/>
<polygon fill="#555555" stroke="#555555" stroke-width="2" points="853.29,-421.5 863.29,-418 853.29,-414.5 853.29,-421.5"/>
<text xml:space="preserve" text-anchor="middle" x="720" y="-418.95" font-family="Helvetica,sans-Serif" font-size="14.00">窗口化残差</text>
</g>
<!-- pseudo_label -->
<g id="node7" class="node">
<title>pseudo_label</title>
<path fill="lightgrey" stroke="black" d="M1184.59,-438.5C1184.59,-438.5 1106.34,-438.5 1106.34,-438.5 1100.34,-438.5 1094.34,-432.5 1094.34,-426.5 1094.34,-426.5 1094.34,-409.5 1094.34,-409.5 1094.34,-403.5 1100.34,-397.5 1106.34,-397.5 1106.34,-397.5 1184.59,-397.5 1184.59,-397.5 1190.59,-397.5 1196.59,-403.5 1196.59,-409.5 1196.59,-409.5 1196.59,-426.5 1196.59,-426.5 1196.59,-432.5 1190.59,-438.5 1184.59,-438.5"/>
<text xml:space="preserve" text-anchor="middle" x="1145.46" y="-419.3" font-family="Helvetica,sans-Serif" font-size="16.00">生成伪标签</text>
<text xml:space="preserve" text-anchor="middle" x="1145.46" y="-405.05" font-family="Helvetica,sans-Serif" font-size="16.00">(正常/异常)</text>
</g>
<!-- lof_score&#45;&gt;pseudo_label -->
<g id="edge5" class="edge">
<title>lof_score&#45;&gt;pseudo_label</title>
<path fill="none" stroke="#555555" d="M988.03,-418C988.03,-418 1082.36,-418 1082.36,-418"/>
<polygon fill="#555555" stroke="#555555" points="1082.36,-421.5 1092.36,-418 1082.36,-414.5 1082.36,-421.5"/>
</g>
<!-- initial_data -->
<g id="node8" class="node">
<title>initial_data</title>
<polygon fill="#ffffff" stroke="black" points="1434.69,-436 1431.69,-440 1410.69,-440 1407.69,-436 1315.19,-436 1315.19,-400 1434.69,-400 1434.69,-436"/>
<text xml:space="preserve" text-anchor="middle" x="1374.94" y="-409.93" font-family="Helvetica,sans-Serif" font-size="16.00">初始训练数据</text>
</g>
<!-- pseudo_label&#45;&gt;initial_data -->
<g id="edge6" class="edge">
<title>pseudo_label&#45;&gt;initial_data</title>
<path fill="none" stroke="#555555" d="M1196.96,-418C1196.96,-418 1303.58,-418 1303.58,-418"/>
<polygon fill="#555555" stroke="#555555" points="1303.58,-421.5 1313.58,-418 1303.58,-414.5 1303.58,-421.5"/>
</g>
<!-- env -->
<g id="node9" class="node">
<title>env</title>
<polygon fill="#ffffff" stroke="black" points="2071.5,-137 1986.5,-137 1986.5,-101 2071.5,-101 2071.5,-137"/>
<text xml:space="preserve" text-anchor="middle" x="2029" y="-110.92" font-family="Helvetica,sans-Serif" font-size="16.00">数据环境</text>
</g>
<!-- initial_data&#45;&gt;env -->
<g id="edge17" class="edge">
<title>initial_data&#45;&gt;env</title>
<path fill="none" stroke="#555555" stroke-width="2" d="M1375,-399.67C1375,-335.53 1375,-125 1375,-125 1375,-125 1974.57,-125 1974.57,-125"/>
<polygon fill="#555555" stroke="#555555" stroke-width="2" points="1973.06,-128.5 1983.06,-125 1973.06,-121.5 1973.06,-128.5"/>
<text xml:space="preserve" text-anchor="middle" x="1725.61" y="-418.95" font-family="Helvetica,sans-Serif" font-size="14.00">注入环境</text>
</g>
<!-- replay_buffer -->
<g id="node10" class="node">
<title>replay_buffer</title>
<polygon fill="#ffffff" stroke="black" points="2388,-211 2255.25,-211 2251.25,-207 2251.25,-175 2384,-175 2388,-179 2388,-211"/>
<polyline fill="none" stroke="black" points="2384,-207 2251.25,-207"/>
<polyline fill="none" stroke="black" points="2384,-207 2384,-175"/>
<polyline fill="none" stroke="black" points="2384,-207 2388,-211"/>
<text xml:space="preserve" text-anchor="middle" x="2319.62" y="-184.93" font-family="Helvetica,sans-Serif" font-size="16.00">优先经验回放池</text>
</g>
<!-- env&#45;&gt;replay_buffer -->
<g id="edge11" class="edge">
<title>env&#45;&gt;replay_buffer</title>
<path fill="none" stroke="#555555" d="M2043,-137.45C2043,-156.67 2043,-184 2043,-184 2043,-184 2239.37,-184 2239.37,-184"/>
<polygon fill="#555555" stroke="#555555" points="2239.37,-187.5 2249.37,-184 2239.37,-180.5 2239.37,-187.5"/>
<text xml:space="preserve" text-anchor="middle" x="2161.37" y="-153.45" font-family="Helvetica,sans-Serif" font-size="14.00">经验(s, a, r, s&#39;)</text>
</g>
<!-- bilstm -->
<g id="node11" class="node">
<title>bilstm</title>
<ellipse fill="lightgrey" stroke="black" cx="1145.46" cy="-43" rx="70.71" ry="18.92"/>
<text xml:space="preserve" text-anchor="middle" x="1145.46" y="-37.17" font-family="Helvetica,sans-Serif" font-size="16.00">Bi&#45;LSTM 层</text>
</g>
<!-- env&#45;&gt;bilstm -->
<g id="edge9" class="edge">
<title>env&#45;&gt;bilstm</title>
<path fill="none" stroke="#555555" d="M1986.12,-113C1817.6,-113 1210,-113 1210,-113 1210,-113 1210,-62.54 1210,-62.54"/>
<polygon fill="#555555" stroke="#555555" points="1213.5,-62.54 1210,-52.54 1206.5,-62.54 1213.5,-62.54"/>
<text xml:space="preserve" text-anchor="middle" x="1524.21" y="-108.45" font-family="Helvetica,sans-Serif" font-size="14.00">状态(s)</text>
</g>
<!-- replay_buffer&#45;&gt;bilstm -->
<g id="edge12" class="edge">
<title>replay_buffer&#45;&gt;bilstm</title>
<path fill="none" stroke="#555555" d="M2251.04,-193C2008.09,-193 1203,-193 1203,-193 1203,-193 1203,-65.79 1203,-65.79"/>
<polygon fill="#555555" stroke="#555555" points="1206.5,-65.79 1203,-55.79 1199.5,-65.79 1206.5,-65.79"/>
<text xml:space="preserve" text-anchor="middle" x="1725.61" y="-193.95" font-family="Helvetica,sans-Serif" font-size="14.00">采样批次</text>
</g>
<!-- attention -->
<g id="node12" class="node">
<title>attention</title>
<ellipse fill="lightgrey" stroke="black" cx="1374.94" cy="-43" rx="71.77" ry="18.92"/>
<text xml:space="preserve" text-anchor="middle" x="1374.94" y="-37.17" font-family="Helvetica,sans-Serif" font-size="16.00">Attention 层</text>
</g>
<!-- bilstm&#45;&gt;attention -->
<g id="edge7" class="edge">
<title>bilstm&#45;&gt;attention</title>
<path fill="none" stroke="#555555" d="M1216.5,-43C1216.5,-43 1291.54,-43 1291.54,-43"/>
<polygon fill="#555555" stroke="#555555" points="1291.54,-46.5 1301.54,-43 1291.54,-39.5 1291.54,-46.5"/>
</g>
<!-- q_network -->
<g id="node13" class="node">
<title>q_network</title>
<ellipse fill="lightgrey" stroke="black" cx="1725.61" cy="-43" rx="92.98" ry="18.92"/>
<text xml:space="preserve" text-anchor="middle" x="1725.61" y="-37.17" font-family="Helvetica,sans-Serif" font-size="16.00">Q&#45;Network 输出</text>
</g>
<!-- attention&#45;&gt;q_network -->
<g id="edge8" class="edge">
<title>attention&#45;&gt;q_network</title>
<path fill="none" stroke="#555555" d="M1447.18,-43C1447.18,-43 1620.62,-43 1620.62,-43"/>
<polygon fill="#555555" stroke="#555555" points="1620.62,-46.5 1630.62,-43 1620.62,-39.5 1620.62,-46.5"/>
</g>
<!-- q_network&#45;&gt;env -->
<g id="edge10" class="edge">
<title>q_network&#45;&gt;env</title>
<path fill="none" stroke="#555555" d="M1818.7,-43C1907.88,-43 2029,-43 2029,-43 2029,-43 2029,-89.09 2029,-89.09"/>
<polygon fill="#555555" stroke="#555555" points="2025.5,-89.09 2029,-99.09 2032.5,-89.09 2025.5,-89.09"/>
<text xml:space="preserve" text-anchor="middle" x="1918" y="-74.45" font-family="Helvetica,sans-Serif" font-size="14.00">动作(a)</text>
</g>
<!-- expert_query -->
<g id="node14" class="node">
<title>expert_query</title>
<path fill="#ffdab9" stroke="black" d="M1837.5,-332C1837.5,-332 1664.41,-332 1664.41,-332 1658.41,-332 1649.26,-326.9 1646.1,-321.79 1646.1,-321.79 1608.02,-260.21 1608.02,-260.21 1604.87,-255.1 1607.71,-250 1613.71,-250 1613.71,-250 1786.8,-250 1786.8,-250 1792.8,-250 1801.95,-255.1 1805.11,-260.21 1805.11,-260.21 1843.19,-321.79 1843.19,-321.79 1846.34,-326.9 1843.5,-332 1837.5,-332"/>
<text xml:space="preserve" text-anchor="middle" x="1725.61" y="-292.3" font-family="Helvetica,sans-Serif" font-size="16.00">主动学习查询</text>
<text xml:space="preserve" text-anchor="middle" x="1725.61" y="-278.05" font-family="Helvetica,sans-Serif" font-size="16.00">(边际采样)</text>
</g>
<!-- q_network&#45;&gt;expert_query -->
<g id="edge13" class="edge">
<title>q_network&#45;&gt;expert_query</title>
<path fill="none" stroke="#555555" stroke-dasharray="5,2" d="M1726,-62.05C1726,-62.05 1726,-238.08 1726,-238.08"/>
<polygon fill="#555555" stroke="#555555" points="1722.5,-238.08 1726,-248.08 1729.5,-238.08 1722.5,-238.08"/>
<text xml:space="preserve" text-anchor="middle" x="1524.21" y="-150.82" font-family="Helvetica,sans-Serif" font-size="14.00">不确定性</text>
</g>
<!-- expert -->
<g id="node15" class="node">
<title>expert</title>
<polygon fill="#fffacd" stroke="black" points="2059.5,-285 1986.5,-285 1986.5,-261 2059.5,-261 2071.5,-273 2059.5,-285"/>
<text xml:space="preserve" text-anchor="middle" x="2029" y="-264.93" font-family="Helvetica,sans-Serif" font-size="16.00">领域专家</text>
</g>
<!-- expert_query&#45;&gt;expert -->
<g id="edge14" class="edge">
<title>expert_query&#45;&gt;expert</title>
<path fill="none" stroke="#555555" stroke-dasharray="5,2" d="M1813.36,-273C1813.36,-273 1974.55,-273 1974.55,-273"/>
<polygon fill="#555555" stroke="#555555" points="1974.55,-276.5 1984.55,-273 1974.55,-269.5 1974.55,-276.5"/>
</g>
<!-- expert&#45;&gt;replay_buffer -->
<g id="edge15" class="edge">
<title>expert&#45;&gt;replay_buffer</title>
<path fill="none" stroke="#555555" stroke-dasharray="5,2" d="M2015,-254.72C2015,-233.68 2015,-202 2015,-202 2015,-202 2239.37,-202 2239.37,-202"/>
<polygon fill="#555555" stroke="#555555" points="2239.37,-205.5 2249.37,-202 2239.37,-198.5 2239.37,-205.5"/>
<text xml:space="preserve" text-anchor="middle" x="2161.37" y="-257.95" font-family="Helvetica,sans-Serif" font-size="14.00">高质量标签</text>
</g>
<!-- l1 -->
<g id="node16" class="node">
<title>l1</title>
<polygon fill="#ffffff" stroke="black" points="124.25,-606 34.75,-606 34.75,-570 124.25,-570 124.25,-606"/>
<text xml:space="preserve" text-anchor="middle" x="79.5" y="-582.17" font-family="Helvetica,sans-Serif" font-size="16.00">数据/组件</text>
</g>
<!-- l2 -->
<g id="node17" class="node">
<title>l2</title>
<polygon fill="#e6f0fa" stroke="black" points="366.75,-606 230,-606 230,-570 366.75,-570 366.75,-606"/>
<text xml:space="preserve" text-anchor="middle" x="298.38" y="-579.92" font-family="Helvetica,sans-Serif" font-size="16.00">数据预处理模块</text>
</g>
<!-- l1&#45;&gt;l2 -->
<!-- l3 -->
<g id="node18" class="node">
<title>l3</title>
<polygon fill="#f2ebf2" stroke="black" points="573.25,-606 453.75,-606 453.75,-570 573.25,-570 573.25,-606"/>
<text xml:space="preserve" text-anchor="middle" x="513.5" y="-579.92" font-family="Helvetica,sans-Serif" font-size="16.00">异常评分模块</text>
</g>
<!-- l2&#45;&gt;l3 -->
<!-- l4 -->
<g id="node19" class="node">
<title>l4</title>
<polygon fill="#e9f5e9" stroke="black" points="779.75,-606 660.25,-606 660.25,-570 779.75,-570 779.75,-606"/>
<text xml:space="preserve" text-anchor="middle" x="720" y="-579.92" font-family="Helvetica,sans-Serif" font-size="16.00">强化学习模块</text>
</g>
<!-- l3&#45;&gt;l4 -->
<!-- l5 -->
<g id="node20" class="node">
<title>l5</title>
<polygon fill="#ffdab9" stroke="black" points="969.75,-606 884.75,-606 884.75,-570 969.75,-570 969.75,-606"/>
<text xml:space="preserve" text-anchor="middle" x="927.25" y="-579.92" font-family="Helvetica,sans-Serif" font-size="16.00">人机交互</text>
</g>
<!-- l4&#45;&gt;l5 -->
</g>
</svg>
