<?xml version="1.0" encoding="UTF-8" standalone="no"?>
<!DOCTYPE svg PUBLIC "-//W3C//DTD SVG 1.1//EN"
 "http://www.w3.org/Graphics/SVG/1.1/DTD/svg11.dtd">
<!-- Generated by graphviz version 13.1.0 (20250701.0955)
 -->
<!-- Pages: 1 -->
<svg width="338pt" height="1010pt"
 viewBox="0.00 0.00 338.00 1010.00" xmlns="http://www.w3.org/2000/svg" xmlns:xlink="http://www.w3.org/1999/xlink">
<g id="graph0" class="graph" transform="scale(1 1) rotate(0) translate(4 1006)">
<polygon fill="white" stroke="none" points="-4,4 -4,-1006 334.14,-1006 334.14,4 -4,4"/>
<g id="clust1" class="cluster">
<title>cluster_outer_loop</title>
<path fill="#fdf2e9" stroke="#e67e22" stroke-dasharray="5,2" d="M52.07,-147.5C52.07,-147.5 283.07,-147.5 283.07,-147.5 289.07,-147.5 295.07,-153.5 295.07,-159.5 295.07,-159.5 295.07,-781 295.07,-781 295.07,-787 289.07,-793 283.07,-793 283.07,-793 52.07,-793 52.07,-793 46.07,-793 40.07,-787 40.07,-781 40.07,-781 40.07,-159.5 40.07,-159.5 40.07,-153.5 46.07,-147.5 52.07,-147.5"/>
<text xml:space="preserve" text-anchor="middle" x="167.57" y="-775.7" font-family="SimHei" font-size="14.00">外循环 (鲁棒性迭代, 执行 n(o) 次)</text>
</g>
<g id="clust2" class="cluster">
<title>cluster_inner_loop</title>
<path fill="#fef9e7" stroke="#e67e22" stroke-dasharray="5,2" d="M60.07,-293.5C60.07,-293.5 275.07,-293.5 275.07,-293.5 281.07,-293.5 287.07,-299.5 287.07,-305.5 287.07,-305.5 287.07,-750 287.07,-750 287.07,-756 281.07,-762 275.07,-762 275.07,-762 60.07,-762 60.07,-762 54.07,-762 48.07,-756 48.07,-750 48.07,-750 48.07,-305.5 48.07,-305.5 48.07,-299.5 54.07,-293.5 60.07,-293.5"/>
<text xml:space="preserve" text-anchor="middle" x="167.57" y="-744.7" font-family="SimHei" font-size="14.00">内循环 (组件估计, 执行 n(i) 次)</text>
</g>
<!-- start -->
<g id="node1" class="node">
<title>start</title>
<ellipse fill="#d5f5e3" stroke="#2ecc71" stroke-width="1.5" cx="115.07" cy="-984" rx="27" ry="18"/>
<text xml:space="preserve" text-anchor="middle" x="115.07" y="-978.98" font-family="SimHei" font-size="12.00">开始</text>
</g>
<!-- input_data -->
<g id="node2" class="node">
<title>input_data</title>
<path fill="#fcf3cf" stroke="#f1c40f" stroke-width="1.5" d="M208.93,-929C208.93,-929 64.53,-929 64.53,-929 58.53,-929 47.91,-925.17 43.3,-921.33 43.3,-921.33 18.44,-900.67 18.44,-900.67 13.82,-896.83 15.21,-893 21.21,-893 21.21,-893 165.61,-893 165.61,-893 171.61,-893 182.22,-896.83 186.84,-900.67 186.84,-900.67 211.7,-921.33 211.7,-921.33 216.31,-925.17 214.93,-929 208.93,-929"/>
<text xml:space="preserve" text-anchor="middle" x="115.07" y="-905.98" font-family="SimHei" font-size="12.00">输入: 时间序列 Yt</text>
</g>
<!-- start&#45;&gt;input_data -->
<g id="edge7" class="edge">
<title>start&#45;&gt;input_data</title>
<path fill="none" stroke="#566573" d="M115.07,-965.58C115.07,-965.58 115.07,-941.18 115.07,-941.18"/>
<polygon fill="#566573" stroke="#566573" points="118.57,-941.18 115.07,-931.18 111.57,-941.18 118.57,-941.18"/>
</g>
<!-- init_weights -->
<g id="node3" class="node">
<title>init_weights</title>
<path fill="#e8f4fd" stroke="#3498db" stroke-width="1.5" d="M189.07,-856C189.07,-856 41.07,-856 41.07,-856 35.07,-856 29.07,-850 29.07,-844 29.07,-844 29.07,-832 29.07,-832 29.07,-826 35.07,-820 41.07,-820 41.07,-820 189.07,-820 189.07,-820 195.07,-820 201.07,-826 201.07,-832 201.07,-832 201.07,-844 201.07,-844 201.07,-850 195.07,-856 189.07,-856"/>
<text xml:space="preserve" text-anchor="middle" x="115.07" y="-832.98" font-family="SimHei" font-size="12.00">初始化: 鲁棒性权重 ρt = 1</text>
</g>
<!-- input_data&#45;&gt;init_weights -->
<g id="edge8" class="edge">
<title>input_data&#45;&gt;init_weights</title>
<path fill="none" stroke="#566573" d="M115.07,-892.58C115.07,-892.58 115.07,-868.18 115.07,-868.18"/>
<polygon fill="#566573" stroke="#566573" points="118.57,-868.18 115.07,-858.18 111.57,-868.18 118.57,-868.18"/>
</g>
<!-- step1 -->
<g id="node6" class="node">
<title>step1</title>
<path fill="#e8f4fd" stroke="#3498db" stroke-width="1.5" d="M141.07,-731C141.07,-731 89.07,-731 89.07,-731 83.07,-731 77.07,-725 77.07,-719 77.07,-719 77.07,-707 77.07,-707 77.07,-701 83.07,-695 89.07,-695 89.07,-695 141.07,-695 141.07,-695 147.07,-695 153.07,-701 153.07,-707 153.07,-707 153.07,-719 153.07,-719 153.07,-725 147.07,-731 141.07,-731"/>
<text xml:space="preserve" text-anchor="middle" x="115.07" y="-714.35" font-family="SimHei" font-size="12.00">1. 去趋势</text>
<text xml:space="preserve" text-anchor="middle" x="115.07" y="-701.6" font-family="SimHei" font-size="12.00">Yt &#45; Tt(k)</text>
</g>
<!-- init_weights&#45;&gt;step1 -->
<g id="edge9" class="edge">
<title>init_weights&#45;&gt;step1</title>
<path fill="none" stroke="#566573" d="M115.07,-819.29C115.07,-819.29 115.07,-742.95 115.07,-742.95"/>
<polygon fill="#566573" stroke="#566573" points="118.57,-742.95 115.07,-732.95 111.57,-742.95 118.57,-742.95"/>
</g>
<!-- final_output -->
<g id="node4" class="node">
<title>final_output</title>
<path fill="#fcf3cf" stroke="#f1c40f" stroke-width="1.5" d="M318.14,-109C318.14,-109 79.55,-109 79.55,-109 73.55,-109 62.25,-106.18 56.96,-103.36 56.96,-103.36 10.59,-78.64 10.59,-78.64 5.29,-75.82 6,-73 12,-73 12,-73 250.59,-73 250.59,-73 256.59,-73 267.88,-75.82 273.18,-78.64 273.18,-78.64 319.55,-103.36 319.55,-103.36 324.84,-106.18 324.14,-109 318.14,-109"/>
<text xml:space="preserve" text-anchor="middle" x="165.07" y="-85.97" font-family="SimHei" font-size="12.00">输出: 趋势Tt, 季节St, 残差Rt</text>
</g>
<!-- end -->
<g id="node5" class="node">
<title>end</title>
<ellipse fill="#d5f5e3" stroke="#2ecc71" stroke-width="1.5" cx="165.07" cy="-18" rx="27" ry="18"/>
<text xml:space="preserve" text-anchor="middle" x="165.07" y="-12.97" font-family="SimHei" font-size="12.00">结束</text>
</g>
<!-- final_output&#45;&gt;end -->
<g id="edge14" class="edge">
<title>final_output&#45;&gt;end</title>
<path fill="none" stroke="#566573" d="M165.07,-72.58C165.07,-72.58 165.07,-48.18 165.07,-48.18"/>
<polygon fill="#566573" stroke="#566573" points="168.57,-48.18 165.07,-38.18 161.57,-48.18 168.57,-48.18"/>
</g>
<!-- step2 -->
<g id="node7" class="node">
<title>step2</title>
<path fill="#e8f4fd" stroke="#3498db" stroke-width="1.5" d="M162.07,-658C162.07,-658 68.07,-658 68.07,-658 62.07,-658 56.07,-652 56.07,-646 56.07,-646 56.07,-634 56.07,-634 56.07,-628 62.07,-622 68.07,-622 68.07,-622 162.07,-622 162.07,-622 168.07,-622 174.07,-628 174.07,-634 174.07,-634 174.07,-646 174.07,-646 174.07,-652 168.07,-658 162.07,-658"/>
<text xml:space="preserve" text-anchor="middle" x="115.07" y="-641.35" font-family="SimHei" font-size="12.00">2. 周期子序列平滑</text>
<text xml:space="preserve" text-anchor="middle" x="115.07" y="-628.6" font-family="SimHei" font-size="12.00">(LOESS, 使用ρt)</text>
</g>
<!-- step1&#45;&gt;step2 -->
<g id="edge1" class="edge">
<title>step1&#45;&gt;step2</title>
<path fill="none" stroke="#566573" d="M115.07,-694.58C115.07,-694.58 115.07,-670.18 115.07,-670.18"/>
<polygon fill="#566573" stroke="#566573" points="118.57,-670.18 115.07,-660.18 111.57,-670.18 118.57,-670.18"/>
</g>
<!-- step3 -->
<g id="node8" class="node">
<title>step3</title>
<path fill="#e8f4fd" stroke="#3498db" stroke-width="1.5" d="M135.07,-575.5C135.07,-575.5 77.07,-575.5 77.07,-575.5 71.07,-575.5 65.07,-569.5 65.07,-563.5 65.07,-563.5 65.07,-551.5 65.07,-551.5 65.07,-545.5 71.07,-539.5 77.07,-539.5 77.07,-539.5 135.07,-539.5 135.07,-539.5 141.07,-539.5 147.07,-545.5 147.07,-551.5 147.07,-551.5 147.07,-563.5 147.07,-563.5 147.07,-569.5 141.07,-575.5 135.07,-575.5"/>
<text xml:space="preserve" text-anchor="middle" x="106.07" y="-552.48" font-family="SimHei" font-size="12.00">3. 低通滤波</text>
</g>
<!-- step2&#45;&gt;step3 -->
<g id="edge2" class="edge">
<title>step2&#45;&gt;step3</title>
<path fill="none" stroke="#566573" d="M106.07,-621.28C106.07,-621.28 106.07,-587.66 106.07,-587.66"/>
<polygon fill="#566573" stroke="#566573" points="109.57,-587.66 106.07,-577.66 102.57,-587.66 109.57,-587.66"/>
<text xml:space="preserve" text-anchor="middle" x="160.32" y="-594.5" font-family="SimHei" font-size="10.00">临时季节序列 Ct(k+1)</text>
</g>
<!-- step4 -->
<g id="node9" class="node">
<title>step4</title>
<path fill="#e8f4fd" stroke="#3498db" stroke-width="1.5" d="M222.07,-493C222.07,-493 68.07,-493 68.07,-493 62.07,-493 56.07,-487 56.07,-481 56.07,-481 56.07,-469 56.07,-469 56.07,-463 62.07,-457 68.07,-457 68.07,-457 222.07,-457 222.07,-457 228.07,-457 234.07,-463 234.07,-469 234.07,-469 234.07,-481 234.07,-481 234.07,-487 228.07,-493 222.07,-493"/>
<text xml:space="preserve" text-anchor="middle" x="145.07" y="-476.35" font-family="SimHei" font-size="12.00">4. 季节分量去趋势</text>
<text xml:space="preserve" text-anchor="middle" x="145.07" y="-463.6" font-family="SimHei" font-size="12.00">St(k+1) = Ct(k+1) &#45; Lt(k+1)</text>
</g>
<!-- step3&#45;&gt;step4 -->
<g id="edge3" class="edge">
<title>step3&#45;&gt;step4</title>
<path fill="none" stroke="#566573" d="M106.07,-538.78C106.07,-538.78 106.07,-505.16 106.07,-505.16"/>
<polygon fill="#566573" stroke="#566573" points="109.57,-505.16 106.07,-495.16 102.57,-505.16 109.57,-505.16"/>
<text xml:space="preserve" text-anchor="middle" x="124.32" y="-512" font-family="SimHei" font-size="10.00">低通滤波序列 Lt(k+1)</text>
</g>
<!-- step5 -->
<g id="node10" class="node">
<title>step5</title>
<path fill="#e8f4fd" stroke="#3498db" stroke-width="1.5" d="M136.07,-410.5C136.07,-410.5 72.07,-410.5 72.07,-410.5 66.07,-410.5 60.07,-404.5 60.07,-398.5 60.07,-398.5 60.07,-386.5 60.07,-386.5 60.07,-380.5 66.07,-374.5 72.07,-374.5 72.07,-374.5 136.07,-374.5 136.07,-374.5 142.07,-374.5 148.07,-380.5 148.07,-386.5 148.07,-386.5 148.07,-398.5 148.07,-398.5 148.07,-404.5 142.07,-410.5 136.07,-410.5"/>
<text xml:space="preserve" text-anchor="middle" x="104.07" y="-393.85" font-family="SimHei" font-size="12.00">5. 去季节性</text>
<text xml:space="preserve" text-anchor="middle" x="104.07" y="-381.1" font-family="SimHei" font-size="12.00">Yt &#45; St(k+1)</text>
</g>
<!-- step4&#45;&gt;step5 -->
<g id="edge4" class="edge">
<title>step4&#45;&gt;step5</title>
<path fill="none" stroke="#566573" d="M104.07,-456.28C104.07,-456.28 104.07,-422.66 104.07,-422.66"/>
<polygon fill="#566573" stroke="#566573" points="107.57,-422.66 104.07,-412.66 100.57,-422.66 107.57,-422.66"/>
<text xml:space="preserve" text-anchor="middle" x="137.57" y="-429.5" font-family="SimHei" font-size="10.00">季节分量 St(k+1)</text>
</g>
<!-- step6 -->
<g id="node11" class="node">
<title>step6</title>
<path fill="#e8f4fd" stroke="#3498db" stroke-width="1.5" d="M160.07,-337.5C160.07,-337.5 72.07,-337.5 72.07,-337.5 66.07,-337.5 60.07,-331.5 60.07,-325.5 60.07,-325.5 60.07,-313.5 60.07,-313.5 60.07,-307.5 66.07,-301.5 72.07,-301.5 72.07,-301.5 160.07,-301.5 160.07,-301.5 166.07,-301.5 172.07,-307.5 172.07,-313.5 172.07,-313.5 172.07,-325.5 172.07,-325.5 172.07,-331.5 166.07,-337.5 160.07,-337.5"/>
<text xml:space="preserve" text-anchor="middle" x="116.07" y="-320.85" font-family="SimHei" font-size="12.00">6. 趋势平滑</text>
<text xml:space="preserve" text-anchor="middle" x="116.07" y="-308.1" font-family="SimHei" font-size="12.00">(LOESS, 使用ρt)</text>
</g>
<!-- step5&#45;&gt;step6 -->
<g id="edge5" class="edge">
<title>step5&#45;&gt;step6</title>
<path fill="none" stroke="#566573" d="M104.07,-374.08C104.07,-374.08 104.07,-349.68 104.07,-349.68"/>
<polygon fill="#566573" stroke="#566573" points="107.57,-349.68 104.07,-339.68 100.57,-349.68 107.57,-349.68"/>
</g>
<!-- step6&#45;&gt;step1 -->
<g id="edge6" class="edge">
<title>step6&#45;&gt;step1</title>
<path fill="none" stroke="#566573" d="M59.4,-320C52.08,-320 47.07,-320 47.07,-320 47.07,-320 47.07,-707 47.07,-707 47.07,-707 65.18,-707 65.18,-707"/>
<polygon fill="#566573" stroke="#566573" points="65.18,-710.5 75.18,-707 65.18,-703.5 65.18,-710.5"/>
<text xml:space="preserve" text-anchor="middle" x="238.57" y="-512" font-family="SimHei" font-size="10.00">趋势分量 Tt(k+1)</text>
</g>
<!-- calc_remainder -->
<g id="node12" class="node">
<title>calc_remainder</title>
<path fill="#e8f4fd" stroke="#3498db" stroke-width="1.5" d="M168.07,-264.5C168.07,-264.5 74.07,-264.5 74.07,-264.5 68.07,-264.5 62.07,-258.5 62.07,-252.5 62.07,-252.5 62.07,-240.5 62.07,-240.5 62.07,-234.5 68.07,-228.5 74.07,-228.5 74.07,-228.5 168.07,-228.5 168.07,-228.5 174.07,-228.5 180.07,-234.5 180.07,-240.5 180.07,-240.5 180.07,-252.5 180.07,-252.5 180.07,-258.5 174.07,-264.5 168.07,-264.5"/>
<text xml:space="preserve" text-anchor="middle" x="121.07" y="-247.85" font-family="SimHei" font-size="12.00">计算残差</text>
<text xml:space="preserve" text-anchor="middle" x="121.07" y="-235.1" font-family="SimHei" font-size="12.00">Rt = Yt &#45; Tt &#45; St</text>
</g>
<!-- step6&#45;&gt;calc_remainder -->
<g id="edge10" class="edge">
<title>step6&#45;&gt;calc_remainder</title>
<path fill="none" stroke="#566573" d="M117.07,-301.08C117.07,-301.08 117.07,-276.68 117.07,-276.68"/>
<polygon fill="#566573" stroke="#566573" points="120.57,-276.68 117.07,-266.68 113.57,-276.68 120.57,-276.68"/>
</g>
<!-- calc_weights -->
<g id="node13" class="node">
<title>calc_weights</title>
<path fill="#e8f4fd" stroke="#3498db" stroke-width="1.5" d="M215.07,-191.5C215.07,-191.5 115.07,-191.5 115.07,-191.5 109.07,-191.5 103.07,-185.5 103.07,-179.5 103.07,-179.5 103.07,-167.5 103.07,-167.5 103.07,-161.5 109.07,-155.5 115.07,-155.5 115.07,-155.5 215.07,-155.5 215.07,-155.5 221.07,-155.5 227.07,-161.5 227.07,-167.5 227.07,-167.5 227.07,-179.5 227.07,-179.5 227.07,-185.5 221.07,-191.5 215.07,-191.5"/>
<text xml:space="preserve" text-anchor="middle" x="165.07" y="-168.47" font-family="SimHei" font-size="12.00">计算鲁棒性权重 ρt</text>
</g>
<!-- calc_remainder&#45;&gt;calc_weights -->
<g id="edge11" class="edge">
<title>calc_remainder&#45;&gt;calc_weights</title>
<path fill="none" stroke="#566573" d="M141.57,-228.08C141.57,-228.08 141.57,-203.68 141.57,-203.68"/>
<polygon fill="#566573" stroke="#566573" points="145.07,-203.68 141.57,-193.68 138.07,-203.68 145.07,-203.68"/>
</g>
<!-- calc_weights&#45;&gt;final_output -->
<g id="edge13" class="edge">
<title>calc_weights&#45;&gt;final_output</title>
<path fill="none" stroke="#566573" d="M165.07,-154.78C165.07,-154.78 165.07,-121.16 165.07,-121.16"/>
<polygon fill="#566573" stroke="#566573" points="168.57,-121.16 165.07,-111.16 161.57,-121.16 168.57,-121.16"/>
<text xml:space="preserve" text-anchor="middle" x="195.07" y="-128" font-family="SimHei" font-size="10.00">n(o)次迭代后</text>
</g>
<!-- calc_weights&#45;&gt;step1 -->
<g id="edge12" class="edge">
<title>calc_weights&#45;&gt;step1</title>
<path fill="none" stroke="#e67e22" stroke-width="1.5" stroke-dasharray="5,2" d="M102.68,-174C70.57,-174 38.07,-174 38.07,-174 38.07,-174 38.07,-719 38.07,-719 38.07,-719 64.3,-719 64.3,-719"/>
<polygon fill="#e67e22" stroke="#e67e22" stroke-width="1.5" points="64.3,-722.5 74.3,-719 64.3,-715.5 64.3,-722.5"/>
<text xml:space="preserve" text-anchor="middle" x="247.44" y="-429.5" font-family="SimHei" font-size="10.00">新鲁棒性权重 ρt</text>
</g>
</g>
</svg>
