<?xml version="1.0" encoding="UTF-8" standalone="no"?>
<!DOCTYPE svg PUBLIC "-//W3C//DTD SVG 1.1//EN"
 "http://www.w3.org/Graphics/SVG/1.1/DTD/svg11.dtd">
<!-- Generated by graphviz version 13.1.0 (20250701.0955)
 -->
<!-- Title: STL_System_Architecture_Minimalist_EN Pages: 1 -->
<svg width="1978pt" height="513pt"
 viewBox="0.00 0.00 1978.00 513.00" xmlns="http://www.w3.org/2000/svg" xmlns:xlink="http://www.w3.org/1999/xlink">
<g id="graph0" class="graph" transform="scale(1 1) rotate(0) translate(4 509)">
<title>STL_System_Architecture_Minimalist_EN</title>
<polygon fill="white" stroke="none" points="-4,4 -4,-509 1974,-509 1974,4 -4,4"/>
<text xml:space="preserve" text-anchor="middle" x="985" y="-483.9" font-family="Helvetica,sans-Serif" font-size="18.00">A Framework for Anomaly Detection Fusing Decomposition, Density Methods, and Reinforcement&#45;Guided Active Learning</text>
<g id="clust1" class="cluster">
<title>cluster_phase1</title>
<polygon fill="white" stroke="#444444" stroke-dasharray="5,2" points="8,-385 8,-468 817.25,-468 817.25,-385 8,-385"/>
<text xml:space="preserve" text-anchor="middle" x="412.62" y="-448.8" font-family="Helvetica,sans-Serif" font-size="16.00">Phase 1: Signal Decomposition</text>
</g>
<g id="clust2" class="cluster">
<title>cluster_phase2</title>
<polygon fill="white" stroke="#444444" stroke-dasharray="5,2" points="948.88,-385 948.88,-468 1497.5,-468 1497.5,-385 948.88,-385"/>
<text xml:space="preserve" text-anchor="middle" x="1223.19" y="-448.8" font-family="Helvetica,sans-Serif" font-size="16.00">Phase 2: Pseudo&#45;Label Generation</text>
</g>
<g id="clust3" class="cluster">
<title>cluster_phase3</title>
<polygon fill="white" stroke="#444444" stroke-dasharray="5,2" points="946.25,-8 946.25,-356 1962,-356 1962,-8 946.25,-8"/>
<text xml:space="preserve" text-anchor="middle" x="1454.12" y="-336.8" font-family="Helvetica,sans-Serif" font-size="16.00">Phase 3: Reinforcement&#45;Guided Active Learning</text>
</g>
<g id="clust4" class="cluster">
<title>cluster_agent</title>
<polygon fill="white" stroke="#444444" stroke-dasharray="5,2" points="968,-120 968,-248 1465.62,-248 1465.62,-120 968,-120"/>
<text xml:space="preserve" text-anchor="middle" x="1216.81" y="-228.8" font-family="Helvetica,sans-Serif" font-size="16.00">RLAD Agent</text>
</g>
<!-- data_input -->
<g id="node1" class="node">
<title>data_input</title>
<polygon fill="white" stroke="#444444" points="223.25,-432.75 16,-432.75 16,-393.25 223.25,-393.25 223.25,-432.75"/>
<text xml:space="preserve" text-anchor="middle" x="119.62" y="-415.45" font-family="Helvetica,sans-Serif" font-size="14.00">&lt;b&gt;Y&lt;/b&gt; = {y₁, y₂, ..., yₙ}</text>
<text xml:space="preserve" text-anchor="middle" x="119.62" y="-399.7" font-family="Helvetica,sans-Serif" font-size="14.00">(Raw Time Series)</text>
</g>
<!-- stl_decomp -->
<g id="node2" class="node">
<title>stl_decomp</title>
<polygon fill="white" stroke="#444444" points="502.75,-431 368.25,-431 368.25,-395 502.75,-395 502.75,-431"/>
<text xml:space="preserve" text-anchor="middle" x="435.5" y="-407.57" font-family="Helvetica,sans-Serif" font-size="14.00">STL Decomposition</text>
</g>
<!-- data_input&#45;&gt;stl_decomp -->
<g id="edge8" class="edge">
<title>data_input&#45;&gt;stl_decomp</title>
<path fill="none" stroke="#555555" d="M223.49,-413C223.49,-413 356.36,-413 356.36,-413"/>
<polygon fill="#555555" stroke="#555555" points="356.36,-416.5 366.36,-413 356.36,-409.5 356.36,-416.5"/>
</g>
<!-- residual -->
<g id="node3" class="node">
<title>residual</title>
<polygon fill="#fff2e6" stroke="#444444" points="809.25,-432.75 647.75,-432.75 647.75,-393.25 809.25,-393.25 809.25,-432.75"/>
<text xml:space="preserve" text-anchor="middle" x="728.5" y="-415.45" font-family="Helvetica,sans-Serif" font-size="14.00">&lt;b&gt;R&lt;sub&gt;t&lt;/sub&gt;&lt;/b&gt;</text>
<text xml:space="preserve" text-anchor="middle" x="728.5" y="-399.7" font-family="Helvetica,sans-Serif" font-size="14.00">(Residual Series)</text>
</g>
<!-- stl_decomp&#45;&gt;residual -->
<g id="edge9" class="edge">
<title>stl_decomp&#45;&gt;residual</title>
<path fill="none" stroke="#555555" stroke-width="1.5" d="M503.09,-413C503.09,-413 635.17,-413 635.17,-413"/>
<polygon fill="#555555" stroke="#555555" stroke-width="1.5" points="635.17,-416.5 645.17,-413 635.17,-409.5 635.17,-416.5"/>
</g>
<!-- lof_score -->
<g id="node4" class="node">
<title>lof_score</title>
<polygon fill="white" stroke="#444444" points="1105.62,-431 956.88,-431 956.88,-395 1105.62,-395 1105.62,-431"/>
<text xml:space="preserve" text-anchor="middle" x="1031.25" y="-407.57" font-family="Helvetica,sans-Serif" font-size="14.00">LOF Anomaly Scoring</text>
</g>
<!-- residual&#45;&gt;lof_score -->
<g id="edge10" class="edge">
<title>residual&#45;&gt;lof_score</title>
<path fill="none" stroke="#555555" stroke-width="1.5" d="M809.63,-413C809.63,-413 944.12,-413 944.12,-413"/>
<polygon fill="#555555" stroke="#555555" stroke-width="1.5" points="944.12,-416.5 954.12,-413 944.12,-409.5 944.12,-416.5"/>
</g>
<!-- pseudo_label -->
<g id="node5" class="node">
<title>pseudo_label</title>
<polygon fill="#fff2e6" stroke="#444444" points="1489.5,-432.75 1326.5,-432.75 1326.5,-393.25 1489.5,-393.25 1489.5,-432.75"/>
<text xml:space="preserve" text-anchor="middle" x="1408" y="-415.45" font-family="Helvetica,sans-Serif" font-size="14.00">&lt;b&gt;L&lt;sub&gt;p&lt;/sub&gt;&lt;/b&gt;</text>
<text xml:space="preserve" text-anchor="middle" x="1408" y="-399.7" font-family="Helvetica,sans-Serif" font-size="14.00">(Pseudo&#45;Label Set)</text>
</g>
<!-- lof_score&#45;&gt;pseudo_label -->
<g id="edge11" class="edge">
<title>lof_score&#45;&gt;pseudo_label</title>
<path fill="none" stroke="#555555" stroke-width="1.5" d="M1105.68,-413C1105.68,-413 1313.94,-413 1313.94,-413"/>
<polygon fill="#555555" stroke="#555555" stroke-width="1.5" points="1313.94,-416.5 1323.94,-413 1313.94,-409.5 1313.94,-416.5"/>
</g>
<!-- replay_buffer -->
<g id="node7" class="node">
<title>replay_buffer</title>
<polygon fill="white" stroke="#444444" points="1954,-267.75 1761,-267.75 1761,-228.25 1954,-228.25 1954,-267.75"/>
<text xml:space="preserve" text-anchor="middle" x="1857.5" y="-250.45" font-family="Helvetica,sans-Serif" font-size="14.00">Prioritized Experience Replay</text>
<text xml:space="preserve" text-anchor="middle" x="1857.5" y="-234.7" font-family="Helvetica,sans-Serif" font-size="14.00">(Replay Buffer)</text>
</g>
<!-- pseudo_label&#45;&gt;replay_buffer -->
<g id="edge12" class="edge">
<title>pseudo_label&#45;&gt;replay_buffer</title>
<path fill="none" stroke="#555555" stroke-width="1.5" d="M1475,-392.84C1475,-351.54 1475,-261.17 1475,-261.17 1475,-261.17 1748.71,-261.17 1748.71,-261.17"/>
<polygon fill="#555555" stroke="#555555" stroke-width="1.5" points="1748.71,-264.67 1758.71,-261.17 1748.71,-257.67 1748.71,-264.67"/>
<text xml:space="preserve" text-anchor="middle" x="1625.25" y="-406.05" font-family="Helvetica,sans-Serif" font-size="11.00"> Inject Initial Data</text>
</g>
<!-- q_network -->
<g id="node6" class="node">
<title>q_network</title>
<polygon fill="#e6f3e6" stroke="#444444" points="1457.62,-212.75 1358.38,-212.75 1358.38,-173.25 1457.62,-173.25 1457.62,-212.75"/>
<text xml:space="preserve" text-anchor="middle" x="1408" y="-195.45" font-family="Helvetica,sans-Serif" font-size="14.00">DQN &amp; Policy</text>
<text xml:space="preserve" text-anchor="middle" x="1408" y="-179.7" font-family="Helvetica,sans-Serif" font-size="14.00">Q(s,a;θ)</text>
</g>
<!-- q_network&#45;&gt;replay_buffer -->
<g id="edge1" class="edge">
<title>q_network&#45;&gt;replay_buffer</title>
<path fill="none" stroke="#555555" stroke-dasharray="5,2" d="M1433,-224.45C1433,-224.45 1433,-234.83 1433,-234.83 1433,-234.83 1635.36,-234.83 1760.64,-234.83"/>
<polygon fill="#555555" stroke="#555555" points="1436.5,-224.45 1433,-214.45 1429.5,-224.45 1436.5,-224.45"/>
<text xml:space="preserve" text-anchor="middle" x="1625.25" y="-91.05" font-family="Helvetica,sans-Serif" font-size="11.00"> Store Experience (s,a,r,s&#39;)</text>
</g>
<!-- q_network&#45;&gt;replay_buffer -->
<g id="edge4" class="edge">
<title>q_network&#45;&gt;replay_buffer</title>
<path fill="none" stroke="#555555" d="M1408,-212.97C1408,-226.31 1408,-241.42 1408,-241.42 1408,-241.42 1749.01,-241.42 1749.01,-241.42"/>
<polygon fill="#555555" stroke="#555555" points="1749.01,-244.92 1759.01,-241.42 1749.01,-237.92 1749.01,-244.92"/>
<text xml:space="preserve" text-anchor="middle" x="1625.25" y="-201.05" font-family="Helvetica,sans-Serif" font-size="11.00"> Action a</text>
</g>
<!-- expert_query -->
<g id="node9" class="node">
<title>expert_query</title>
<polygon fill="white" stroke="#444444" points="1108.25,-307.75 954.25,-307.75 954.25,-268.25 1108.25,-268.25 1108.25,-307.75"/>
<text xml:space="preserve" text-anchor="middle" x="1031.25" y="-290.45" font-family="Helvetica,sans-Serif" font-size="14.00">Active Learning Query</text>
<text xml:space="preserve" text-anchor="middle" x="1031.25" y="-274.7" font-family="Helvetica,sans-Serif" font-size="14.00">(Uncertainty Sampling)</text>
</g>
<!-- q_network&#45;&gt;expert_query -->
<g id="edge5" class="edge">
<title>q_network&#45;&gt;expert_query</title>
<path fill="none" stroke="#555555" stroke-dasharray="5,2" d="M1358.03,-194.25C1270.12,-194.25 1097,-194.25 1097,-194.25 1097,-194.25 1097,-256.6 1097,-256.6"/>
<polygon fill="#555555" stroke="#555555" points="1093.5,-256.6 1097,-266.6 1100.5,-256.6 1093.5,-256.6"/>
</g>
<!-- bilstm -->
<g id="node8" class="node">
<title>bilstm</title>
<polygon fill="#e6f3e6" stroke="#444444" points="1086.5,-175.75 976,-175.75 976,-136.25 1086.5,-136.25 1086.5,-175.75"/>
<text xml:space="preserve" text-anchor="middle" x="1031.25" y="-158.45" font-family="Helvetica,sans-Serif" font-size="14.00">Bi&#45;LSTM</text>
<text xml:space="preserve" text-anchor="middle" x="1031.25" y="-142.7" font-family="Helvetica,sans-Serif" font-size="14.00">(State Encoder)</text>
</g>
<!-- replay_buffer&#45;&gt;bilstm -->
<g id="edge3" class="edge">
<title>replay_buffer&#45;&gt;bilstm</title>
<path fill="none" stroke="#555555" d="M1760.67,-248C1542.42,-248 1031,-248 1031,-248 1031,-248 1031,-187.48 1031,-187.48"/>
<polygon fill="#555555" stroke="#555555" points="1034.5,-187.48 1031,-177.48 1027.5,-187.48 1034.5,-187.48"/>
<text xml:space="preserve" text-anchor="middle" x="1408" y="-91.05" font-family="Helvetica,sans-Serif" font-size="11.00"> Sampled Batch s</text>
</g>
<!-- bilstm&#45;&gt;q_network -->
<g id="edge2" class="edge">
<title>bilstm&#45;&gt;q_network</title>
<path fill="none" stroke="#555555" d="M1086.84,-154.75C1191.64,-154.75 1408,-154.75 1408,-154.75 1408,-154.75 1408,-161.47 1408,-161.47"/>
<polygon fill="#555555" stroke="#555555" points="1404.5,-161.47 1408,-171.47 1411.5,-161.47 1404.5,-161.47"/>
<text xml:space="preserve" text-anchor="middle" x="1217.38" y="-203.05" font-family="Helvetica,sans-Serif" font-size="11.00"> Encoded State</text>
</g>
<!-- expert -->
<g id="node10" class="node">
<title>expert</title>
<polygon fill="white" stroke="#444444" points="1461,-321 1355,-321 1355,-285 1461,-285 1461,-321"/>
<text xml:space="preserve" text-anchor="middle" x="1408" y="-297.57" font-family="Helvetica,sans-Serif" font-size="14.00">Domain Expert</text>
</g>
<!-- expert_query&#45;&gt;expert -->
<g id="edge6" class="edge">
<title>expert_query&#45;&gt;expert</title>
<path fill="none" stroke="#555555" stroke-dasharray="5,2" d="M1108.4,-296.38C1108.4,-296.38 1343.12,-296.38 1343.12,-296.38"/>
<polygon fill="#555555" stroke="#555555" points="1343.12,-299.88 1353.12,-296.38 1343.12,-292.88 1343.12,-299.88"/>
</g>
<!-- expert&#45;&gt;replay_buffer -->
<g id="edge7" class="edge">
<title>expert&#45;&gt;replay_buffer</title>
<path fill="none" stroke="#555555" stroke-dasharray="5,2" d="M1383,-284.7C1383,-270.98 1383,-254.58 1383,-254.58 1383,-254.58 1749.11,-254.58 1749.11,-254.58"/>
<polygon fill="#555555" stroke="#555555" points="1749.11,-258.08 1759.11,-254.58 1749.11,-251.08 1749.11,-258.08"/>
<text xml:space="preserve" text-anchor="middle" x="1625.25" y="-301.05" font-family="Helvetica,sans-Serif" font-size="11.00"> Expert Label</text>
</g>
</g>
</svg>
