<?xml version="1.0" encoding="UTF-8" standalone="no"?>
<!DOCTYPE svg PUBLIC "-//W3C//DTD SVG 1.1//EN"
 "http://www.w3.org/Graphics/SVG/1.1/DTD/svg11.dtd">
<!-- Generated by graphviz version 13.1.0 (20250701.0955)
 -->
<!-- Title: STL_System_Architecture_Minimalist Pages: 1 -->
<svg width="1863pt" height="529pt"
 viewBox="0.00 0.00 1863.00 529.00" xmlns="http://www.w3.org/2000/svg" xmlns:xlink="http://www.w3.org/1999/xlink">
<g id="graph0" class="graph" transform="scale(1 1) rotate(0) translate(4 524.5)">
<title>STL_System_Architecture_Minimalist</title>
<polygon fill="white" stroke="none" points="-4,4 -4,-524.5 1859.25,-524.5 1859.25,4 -4,4"/>
<text xml:space="preserve" text-anchor="middle" x="927.62" y="-495.6" font-family="Helvetica,sans-Serif" font-size="22.00">一个融合分解&#45;密度与强化引导主动学习的异常检测框架</text>
<g id="clust1" class="cluster">
<title>cluster_phase1</title>
<polygon fill="white" stroke="#444444" stroke-dasharray="5,2" points="8,-390 8,-479 797.75,-479 797.75,-390 8,-390"/>
<text xml:space="preserve" text-anchor="middle" x="402.88" y="-457.9" font-family="Helvetica,sans-Serif" font-size="18.00">阶段一: 信号分解</text>
</g>
<g id="clust2" class="cluster">
<title>cluster_phase2</title>
<polygon fill="white" stroke="#444444" stroke-dasharray="5,2" points="927.12,-390 927.12,-479 1450.25,-479 1450.25,-390 927.12,-390"/>
<text xml:space="preserve" text-anchor="middle" x="1188.69" y="-457.9" font-family="Helvetica,sans-Serif" font-size="18.00">阶段二: 伪标签生成</text>
</g>
<g id="clust3" class="cluster">
<title>cluster_phase3</title>
<polygon fill="white" stroke="#444444" stroke-dasharray="5,2" points="922.12,-8 922.12,-363 1847.25,-363 1847.25,-8 922.12,-8"/>
<text xml:space="preserve" text-anchor="middle" x="1384.69" y="-341.9" font-family="Helvetica,sans-Serif" font-size="18.00">阶段三: 强化引导主动学习</text>
</g>
<g id="clust4" class="cluster">
<title>cluster_agent</title>
<polygon fill="white" stroke="#444444" stroke-dasharray="5,2" points="930.12,-124 930.12,-255 1414.62,-255 1414.62,-124 930.12,-124"/>
<text xml:space="preserve" text-anchor="middle" x="1172.38" y="-233.9" font-family="Helvetica,sans-Serif" font-size="18.00">RLAD 智能体 (Agent)</text>
</g>
<!-- data_input -->
<g id="node1" class="node">
<title>data_input</title>
<polygon fill="white" stroke="#444444" points="242,-442 16,-442 16,-398 242,-398 242,-442"/>
<text xml:space="preserve" text-anchor="middle" x="129" y="-423.75" font-family="Helvetica,sans-Serif" font-size="15.00">&lt;b&gt;Y&lt;/b&gt; = {y₁, y₂, ..., yₙ}</text>
<text xml:space="preserve" text-anchor="middle" x="129" y="-405.75" font-family="Helvetica,sans-Serif" font-size="15.00">(原始序列)</text>
</g>
<!-- stl_decomp -->
<g id="node2" class="node">
<title>stl_decomp</title>
<polygon fill="white" stroke="#444444" points="468.25,-438 387,-438 387,-402 468.25,-402 468.25,-438"/>
<text xml:space="preserve" text-anchor="middle" x="427.62" y="-414.75" font-family="Helvetica,sans-Serif" font-size="15.00">STL 分解</text>
</g>
<!-- data_input&#45;&gt;stl_decomp -->
<g id="edge8" class="edge">
<title>data_input&#45;&gt;stl_decomp</title>
<path fill="none" stroke="#555555" d="M242.32,-420C242.32,-420 375.14,-420 375.14,-420"/>
<polygon fill="#555555" stroke="#555555" points="375.14,-423.5 385.14,-420 375.14,-416.5 375.14,-423.5"/>
</g>
<!-- residual -->
<g id="node3" class="node">
<title>residual</title>
<polygon fill="#fff2e6" stroke="#444444" points="789.75,-442 613.25,-442 613.25,-398 789.75,-398 789.75,-442"/>
<text xml:space="preserve" text-anchor="middle" x="701.5" y="-423.75" font-family="Helvetica,sans-Serif" font-size="15.00">&lt;b&gt;R&lt;sub&gt;t&lt;/sub&gt;&lt;/b&gt;</text>
<text xml:space="preserve" text-anchor="middle" x="701.5" y="-405.75" font-family="Helvetica,sans-Serif" font-size="15.00">(残差序列)</text>
</g>
<!-- stl_decomp&#45;&gt;residual -->
<g id="edge9" class="edge">
<title>stl_decomp&#45;&gt;residual</title>
<path fill="none" stroke="#555555" stroke-width="1.5" d="M468.63,-420C468.63,-420 600.59,-420 600.59,-420"/>
<polygon fill="#555555" stroke="#555555" stroke-width="1.5" points="600.59,-423.5 610.59,-420 600.59,-416.5 600.59,-423.5"/>
</g>
<!-- lof_score -->
<g id="node4" class="node">
<title>lof_score</title>
<polygon fill="white" stroke="#444444" points="1053.88,-438 935.12,-438 935.12,-402 1053.88,-402 1053.88,-438"/>
<text xml:space="preserve" text-anchor="middle" x="994.5" y="-414.75" font-family="Helvetica,sans-Serif" font-size="15.00">LOF 异常评分</text>
</g>
<!-- residual&#45;&gt;lof_score -->
<g id="edge10" class="edge">
<title>residual&#45;&gt;lof_score</title>
<path fill="none" stroke="#555555" stroke-width="1.5" d="M790.2,-420C790.2,-420 922.56,-420 922.56,-420"/>
<polygon fill="#555555" stroke="#555555" stroke-width="1.5" points="922.56,-423.5 932.56,-420 922.56,-416.5 922.56,-423.5"/>
</g>
<!-- pseudo_label -->
<g id="node5" class="node">
<title>pseudo_label</title>
<polygon fill="#fff2e6" stroke="#444444" points="1442.25,-442 1264.25,-442 1264.25,-398 1442.25,-398 1442.25,-442"/>
<text xml:space="preserve" text-anchor="middle" x="1353.25" y="-423.75" font-family="Helvetica,sans-Serif" font-size="15.00">&lt;b&gt;L&lt;sub&gt;p&lt;/sub&gt;&lt;/b&gt;</text>
<text xml:space="preserve" text-anchor="middle" x="1353.25" y="-405.75" font-family="Helvetica,sans-Serif" font-size="15.00">(伪标签集)</text>
</g>
<!-- lof_score&#45;&gt;pseudo_label -->
<g id="edge11" class="edge">
<title>lof_score&#45;&gt;pseudo_label</title>
<path fill="none" stroke="#555555" stroke-width="1.5" d="M1054.14,-420C1054.14,-420 1251.59,-420 1251.59,-420"/>
<polygon fill="#555555" stroke="#555555" stroke-width="1.5" points="1251.59,-423.5 1261.59,-420 1251.59,-416.5 1251.59,-423.5"/>
</g>
<!-- replay_buffer -->
<g id="node7" class="node">
<title>replay_buffer</title>
<polygon fill="white" stroke="#444444" points="1839.25,-271.12 1702.5,-271.12 1702.5,-230.88 1839.25,-230.88 1839.25,-271.12"/>
<text xml:space="preserve" text-anchor="middle" x="1770.88" y="-252.88" font-family="Helvetica,sans-Serif" font-size="15.00">优先经验回放池</text>
<text xml:space="preserve" text-anchor="middle" x="1770.88" y="-238.62" font-family="Helvetica,sans-Serif" font-size="15.00">(Replay Buffer)</text>
</g>
<!-- pseudo_label&#45;&gt;replay_buffer -->
<g id="edge12" class="edge">
<title>pseudo_label&#45;&gt;replay_buffer</title>
<path fill="none" stroke="#555555" stroke-width="1.5" d="M1424.25,-397.71C1424.25,-354.69 1424.25,-264.42 1424.25,-264.42 1424.25,-264.42 1690.12,-264.42 1690.12,-264.42"/>
<polygon fill="#555555" stroke="#555555" stroke-width="1.5" points="1690.12,-267.92 1700.12,-264.42 1690.12,-260.92 1690.12,-267.92"/>
<text xml:space="preserve" text-anchor="middle" x="1572.38" y="-412.05" font-family="Helvetica,sans-Serif" font-size="11.00"> 注入初始数据</text>
</g>
<!-- q_network -->
<g id="node6" class="node">
<title>q_network</title>
<polygon fill="#e6f3e6" stroke="#444444" points="1406.62,-218 1299.88,-218 1299.88,-174 1406.62,-174 1406.62,-218"/>
<text xml:space="preserve" text-anchor="middle" x="1353.25" y="-199.75" font-family="Helvetica,sans-Serif" font-size="15.00">DQN &amp; Policy</text>
<text xml:space="preserve" text-anchor="middle" x="1353.25" y="-181.75" font-family="Helvetica,sans-Serif" font-size="15.00">Q(s,a;θ)</text>
</g>
<!-- q_network&#45;&gt;replay_buffer -->
<g id="edge1" class="edge">
<title>q_network&#45;&gt;replay_buffer</title>
<path fill="none" stroke="#555555" stroke-dasharray="5,2" d="M1403.25,-229.77C1403.25,-229.77 1403.25,-237.58 1403.25,-237.58 1403.25,-237.58 1595.75,-237.58 1702.16,-237.58"/>
<polygon fill="#555555" stroke="#555555" points="1406.75,-229.77 1403.25,-219.77 1399.75,-229.77 1406.75,-229.77"/>
<text xml:space="preserve" text-anchor="middle" x="1572.38" y="-91.05" font-family="Helvetica,sans-Serif" font-size="11.00"> (s, a, r, s&#39;) 存入经验</text>
</g>
<!-- q_network&#45;&gt;replay_buffer -->
<g id="edge4" class="edge">
<title>q_network&#45;&gt;replay_buffer</title>
<path fill="none" stroke="#555555" d="M1399.25,-218.45C1399.25,-231.06 1399.25,-244.29 1399.25,-244.29 1399.25,-244.29 1690.77,-244.29 1690.77,-244.29"/>
<polygon fill="#555555" stroke="#555555" points="1690.77,-247.79 1700.77,-244.29 1690.77,-240.79 1690.77,-247.79"/>
<text xml:space="preserve" text-anchor="middle" x="1572.38" y="-204.05" font-family="Helvetica,sans-Serif" font-size="11.00"> 动作 a</text>
</g>
<!-- expert_query -->
<g id="node9" class="node">
<title>expert_query</title>
<polygon fill="white" stroke="#444444" points="1054.25,-314.12 934.75,-314.12 934.75,-273.88 1054.25,-273.88 1054.25,-314.12"/>
<text xml:space="preserve" text-anchor="middle" x="994.5" y="-295.88" font-family="Helvetica,sans-Serif" font-size="15.00">主动学习查询</text>
<text xml:space="preserve" text-anchor="middle" x="994.5" y="-281.62" font-family="Helvetica,sans-Serif" font-size="15.00">(不确定性)</text>
</g>
<!-- q_network&#45;&gt;expert_query -->
<g id="edge5" class="edge">
<title>q_network&#45;&gt;expert_query</title>
<path fill="none" stroke="#555555" stroke-dasharray="5,2" d="M1305.25,-218.13C1305.25,-243.59 1305.25,-281.94 1305.25,-281.94 1305.25,-281.94 1065.93,-281.94 1065.93,-281.94"/>
<polygon fill="#555555" stroke="#555555" points="1065.93,-278.44 1055.93,-281.94 1065.93,-285.44 1065.93,-278.44"/>
</g>
<!-- bilstm -->
<g id="node8" class="node">
<title>bilstm</title>
<polygon fill="#e6f3e6" stroke="#444444" points="1050.88,-183 938.12,-183 938.12,-139 1050.88,-139 1050.88,-183"/>
<text xml:space="preserve" text-anchor="middle" x="994.5" y="-164.75" font-family="Helvetica,sans-Serif" font-size="15.00">Bi&#45;LSTM</text>
<text xml:space="preserve" text-anchor="middle" x="994.5" y="-146.75" font-family="Helvetica,sans-Serif" font-size="15.00">(状态编码器)</text>
</g>
<!-- replay_buffer&#45;&gt;bilstm -->
<g id="edge3" class="edge">
<title>replay_buffer&#45;&gt;bilstm</title>
<path fill="none" stroke="#555555" d="M1702.3,-251C1512.5,-251 994.25,-251 994.25,-251 994.25,-251 994.25,-194.76 994.25,-194.76"/>
<polygon fill="#555555" stroke="#555555" points="997.75,-194.76 994.25,-184.76 990.75,-194.76 997.75,-194.76"/>
<text xml:space="preserve" text-anchor="middle" x="1353.25" y="-91.05" font-family="Helvetica,sans-Serif" font-size="11.00"> 采样批次 s</text>
</g>
<!-- bilstm&#45;&gt;q_network -->
<g id="edge2" class="edge">
<title>bilstm&#45;&gt;q_network</title>
<path fill="none" stroke="#555555" d="M1051.35,-178.5C1051.35,-178.5 1288.09,-178.5 1288.09,-178.5"/>
<polygon fill="#555555" stroke="#555555" points="1288.09,-182 1298.09,-178.5 1288.09,-175 1288.09,-182"/>
<text xml:space="preserve" text-anchor="middle" x="1159.25" y="-207.05" font-family="Helvetica,sans-Serif" font-size="11.00"> 编码状态</text>
</g>
<!-- expert -->
<g id="node10" class="node">
<title>expert</title>
<polygon fill="white" stroke="#444444" points="1395.75,-326 1310.75,-326 1310.75,-290 1395.75,-290 1395.75,-326"/>
<text xml:space="preserve" text-anchor="middle" x="1353.25" y="-300.88" font-family="Helvetica,sans-Serif" font-size="15.00">领域专家</text>
</g>
<!-- expert_query&#45;&gt;expert -->
<g id="edge6" class="edge">
<title>expert_query&#45;&gt;expert</title>
<path fill="none" stroke="#555555" stroke-dasharray="5,2" d="M1054.55,-302.06C1054.55,-302.06 1298.96,-302.06 1298.96,-302.06"/>
<polygon fill="#555555" stroke="#555555" points="1298.97,-305.56 1308.96,-302.06 1298.96,-298.56 1298.97,-305.56"/>
</g>
<!-- expert&#45;&gt;replay_buffer -->
<g id="edge7" class="edge">
<title>expert&#45;&gt;replay_buffer</title>
<path fill="none" stroke="#555555" stroke-dasharray="5,2" d="M1353.25,-289.56C1353.25,-275.21 1353.25,-257.71 1353.25,-257.71 1353.25,-257.71 1690.87,-257.71 1690.87,-257.71"/>
<polygon fill="#555555" stroke="#555555" points="1690.87,-261.21 1700.87,-257.71 1690.87,-254.21 1690.87,-261.21"/>
<text xml:space="preserve" text-anchor="middle" x="1572.38" y="-305.05" font-family="Helvetica,sans-Serif" font-size="11.00"> 专家标签</text>
</g>
</g>
</svg>
