<?xml version="1.0" encoding="UTF-8" standalone="no"?>
<!DOCTYPE svg PUBLIC "-//W3C//DTD SVG 1.1//EN"
 "http://www.w3.org/Graphics/SVG/1.1/DTD/svg11.dtd">
<!-- Generated by graphviz version 13.1.0 (20250701.0955)
 -->
<!-- Title: STL_System_Architecture_Optimized Pages: 1 -->
<svg width="2717pt" height="676pt"
 viewBox="0.00 0.00 2717.00 676.00" xmlns="http://www.w3.org/2000/svg" xmlns:xlink="http://www.w3.org/1999/xlink">
<g id="graph0" class="graph" transform="scale(1 1) rotate(0) translate(4 672)">
<title>STL_System_Architecture_Optimized</title>
<polygon fill="#f5f5f5" stroke="none" points="-4,4 -4,-672 2712.63,-672 2712.63,4 -4,4"/>
<text xml:space="preserve" text-anchor="middle" x="1354.31" y="-641.2" font-family="Helvetica,sans-Serif" font-size="24.00">一个融合分解&#45;密度与强化引导主动学习的异常检测框架</text>
<g id="clust1" class="cluster">
<title>cluster_phase1</title>
<polygon fill="#ddeeff" stroke="#ddeeff" points="8,-444 8,-625 584,-625 584,-444 8,-444"/>
<text xml:space="preserve" text-anchor="middle" x="296" y="-598.2" font-family="Helvetica,sans-Serif" font-size="24.00">阶段一: 信号分解</text>
</g>
<g id="clust2" class="cluster">
<title>cluster_phase2</title>
<polygon fill="#ffeedd" stroke="#ffeedd" points="912.75,-444 912.75,-531 1522.88,-531 1522.88,-444 912.75,-444"/>
<text xml:space="preserve" text-anchor="middle" x="1217.81" y="-504.2" font-family="Helvetica,sans-Serif" font-size="24.00">阶段二: 基于密度的伪标签生成</text>
</g>
<g id="clust3" class="cluster">
<title>cluster_phase3</title>
<polygon fill="#e9e9e9" stroke="#e9e9e9" points="1346,-8 1346,-397 2700.63,-397 2700.63,-8 1346,-8"/>
<text xml:space="preserve" text-anchor="middle" x="2023.31" y="-370.2" font-family="Helvetica,sans-Serif" font-size="24.00">阶段三: 强化引导主动学习</text>
</g>
<g id="clust4" class="cluster">
<title>cluster_agent</title>
<polygon fill="#d0d0d0" stroke="#d0d0d0" points="1354,-16 1354,-113 1968.56,-113 1968.56,-16 1354,-16"/>
<text xml:space="preserve" text-anchor="middle" x="1661.28" y="-86.2" font-family="Helvetica,sans-Serif" font-size="24.00">RLAD 智能体</text>
</g>
<!-- data_input -->
<g id="node1" class="node">
<title>data_input</title>
<path fill="#ffffff" stroke="black" d="M135.5,-531.73C135.5,-533.53 108.72,-535 75.75,-535 42.78,-535 16,-533.53 16,-531.73 16,-531.73 16,-502.27 16,-502.27 16,-500.47 42.78,-499 75.75,-499 108.72,-499 135.5,-500.47 135.5,-502.27 135.5,-502.27 135.5,-531.73 135.5,-531.73"/>
<path fill="none" stroke="black" d="M135.5,-531.73C135.5,-529.92 108.72,-528.45 75.75,-528.45 42.78,-528.45 16,-529.92 16,-531.73"/>
<text xml:space="preserve" text-anchor="middle" x="75.75" y="-508.93" font-family="Helvetica,sans-Serif" font-size="16.00">原始时间序列</text>
</g>
<!-- stl_decomp -->
<g id="node2" class="node">
<title>stl_decomp</title>
<path fill="#ddeeff" stroke="black" d="M316,-535C316,-535 256.5,-535 256.5,-535 250.5,-535 244.5,-529 244.5,-523 244.5,-523 244.5,-511 244.5,-511 244.5,-505 250.5,-499 256.5,-499 256.5,-499 316,-499 316,-499 322,-499 328,-505 328,-511 328,-511 328,-523 328,-523 328,-529 322,-535 316,-535"/>
<text xml:space="preserve" text-anchor="middle" x="286.25" y="-511.18" font-family="Helvetica,sans-Serif" font-size="16.00">STL 分解</text>
</g>
<!-- data_input&#45;&gt;stl_decomp -->
<g id="edge1" class="edge">
<title>data_input&#45;&gt;stl_decomp</title>
<path fill="none" stroke="#333333" d="M135.79,-517C135.79,-517 232.66,-517 232.66,-517"/>
<polygon fill="#333333" stroke="#333333" points="232.66,-520.5 242.66,-517 232.66,-513.5 232.66,-520.5"/>
</g>
<!-- residual -->
<g id="node3" class="node">
<title>residual</title>
<path fill="#ffffff" stroke="black" d="M552.38,-488C552.38,-488 460.62,-488 460.62,-488 454.62,-488 448.62,-482 448.62,-476 448.62,-476 448.62,-464 448.62,-464 448.62,-458 454.62,-452 460.62,-452 460.62,-452 552.38,-452 552.38,-452 558.38,-452 564.38,-458 564.38,-464 564.38,-464 564.38,-476 564.38,-476 564.38,-482 558.38,-488 552.38,-488"/>
<text xml:space="preserve" text-anchor="middle" x="506.5" y="-464.18" font-family="Helvetica,sans-Serif" font-size="16.00">残差分量 (Rt)</text>
</g>
<!-- stl_decomp&#45;&gt;residual -->
<g id="edge2" class="edge">
<title>stl_decomp&#45;&gt;residual</title>
<path fill="none" stroke="#333333" stroke-width="2" d="M286.63,-498.69C286.63,-485.5 286.63,-470 286.63,-470 286.63,-470 435.13,-470 435.13,-470"/>
<polygon fill="#333333" stroke="#333333" stroke-width="2" points="435.13,-473.5 445.13,-470 435.13,-466.5 435.13,-473.5"/>
</g>
<!-- other_comps -->
<g id="node4" class="node">
<title>other_comps</title>
<path fill="lightgrey" stroke="none" d="M564,-582C564,-582 449,-582 449,-582 443,-582 437,-576 437,-570 437,-570 437,-558 437,-558 437,-552 443,-546 449,-546 449,-546 564,-546 564,-546 570,-546 576,-552 576,-558 576,-558 576,-570 576,-570 576,-576 570,-582 564,-582"/>
<text xml:space="preserve" text-anchor="middle" x="506.5" y="-558.17" font-family="Helvetica,sans-Serif" font-size="16.00" fill="#666666">趋势项 &amp; 季节项</text>
</g>
<!-- stl_decomp&#45;&gt;other_comps -->
<g id="edge3" class="edge">
<title>stl_decomp&#45;&gt;other_comps</title>
<path fill="none" stroke="#333333" stroke-dasharray="5,2" d="M328.16,-517C374.48,-517 442.63,-517 442.63,-517 442.63,-517 442.63,-532.92 442.63,-546.23"/>
</g>
<!-- lof_score -->
<g id="node5" class="node">
<title>lof_score</title>
<path fill="#ffeedd" stroke="black" d="M1029.75,-488C1029.75,-488 932.75,-488 932.75,-488 926.75,-488 920.75,-482 920.75,-476 920.75,-476 920.75,-464 920.75,-464 920.75,-458 926.75,-452 932.75,-452 932.75,-452 1029.75,-452 1029.75,-452 1035.75,-452 1041.75,-458 1041.75,-464 1041.75,-464 1041.75,-476 1041.75,-476 1041.75,-482 1035.75,-488 1029.75,-488"/>
<text xml:space="preserve" text-anchor="middle" x="981.25" y="-464.18" font-family="Helvetica,sans-Serif" font-size="16.00">LOF 异常评分</text>
</g>
<!-- residual&#45;&gt;lof_score -->
<g id="edge14" class="edge">
<title>residual&#45;&gt;lof_score</title>
<path fill="none" stroke="#333333" stroke-width="2" d="M564.71,-470C564.71,-470 907.28,-470 907.28,-470"/>
<polygon fill="#333333" stroke="#333333" stroke-width="2" points="907.28,-473.5 917.28,-470 907.28,-466.5 907.28,-473.5"/>
<text xml:space="preserve" text-anchor="middle" x="748.38" y="-472.85" font-family="Helvetica,sans-Serif" font-size="12.00"> &#160;窗口化残差序列</text>
</g>
<!-- pseudo_label -->
<g id="node6" class="node">
<title>pseudo_label</title>
<path fill="#ffeedd" stroke="black" d="M1241,-488C1241,-488 1162.75,-488 1162.75,-488 1156.75,-488 1150.75,-482 1150.75,-476 1150.75,-476 1150.75,-464 1150.75,-464 1150.75,-458 1156.75,-452 1162.75,-452 1162.75,-452 1241,-452 1241,-452 1247,-452 1253,-458 1253,-464 1253,-464 1253,-476 1253,-476 1253,-482 1247,-488 1241,-488"/>
<text xml:space="preserve" text-anchor="middle" x="1201.88" y="-461.93" font-family="Helvetica,sans-Serif" font-size="16.00">生成伪标签</text>
</g>
<!-- lof_score&#45;&gt;pseudo_label -->
<g id="edge4" class="edge">
<title>lof_score&#45;&gt;pseudo_label</title>
<path fill="none" stroke="#333333" d="M1042.12,-470C1042.12,-470 1139.02,-470 1139.02,-470"/>
<polygon fill="#333333" stroke="#333333" points="1139.02,-473.5 1149.02,-470 1139.02,-466.5 1139.02,-473.5"/>
</g>
<!-- initial_data -->
<g id="node7" class="node">
<title>initial_data</title>
<polygon fill="#ffffff" stroke="black" points="1514.88,-488 1511.88,-492 1490.88,-492 1487.88,-488 1378.12,-488 1378.12,-452 1514.88,-452 1514.88,-488"/>
<text xml:space="preserve" text-anchor="middle" x="1446.5" y="-461.93" font-family="Helvetica,sans-Serif" font-size="16.00">初始标注数据集</text>
</g>
<!-- pseudo_label&#45;&gt;initial_data -->
<g id="edge5" class="edge">
<title>pseudo_label&#45;&gt;initial_data</title>
<path fill="none" stroke="#333333" d="M1253.45,-470C1253.45,-470 1366.3,-470 1366.3,-470"/>
<polygon fill="#333333" stroke="#333333" points="1366.3,-473.5 1376.3,-470 1366.3,-466.5 1366.3,-473.5"/>
</g>
<!-- env -->
<g id="node8" class="node">
<title>env</title>
<path fill="#ffffff" stroke="black" d="M2312.13,-199.5C2312.13,-199.5 2180.63,-199.5 2180.63,-199.5 2174.63,-199.5 2168.63,-193.5 2168.63,-187.5 2168.63,-187.5 2168.63,-170.5 2168.63,-170.5 2168.63,-164.5 2174.63,-158.5 2180.63,-158.5 2180.63,-158.5 2312.13,-158.5 2312.13,-158.5 2318.13,-158.5 2324.13,-164.5 2324.13,-170.5 2324.13,-170.5 2324.13,-187.5 2324.13,-187.5 2324.13,-193.5 2318.13,-199.5 2312.13,-199.5"/>
<text xml:space="preserve" text-anchor="middle" x="2246.38" y="-180.3" font-family="Helvetica,sans-Serif" font-size="16.00">数据环境</text>
<text xml:space="preserve" text-anchor="middle" x="2246.38" y="-166.05" font-family="Helvetica,sans-Serif" font-size="16.00">(Data Environment)</text>
</g>
<!-- initial_data&#45;&gt;env -->
<g id="edge15" class="edge">
<title>initial_data&#45;&gt;env</title>
<path fill="none" stroke="#333333" stroke-width="2" d="M1515.13,-470C1698.61,-470 2186.63,-470 2186.63,-470 2186.63,-470 2186.63,-212.96 2186.63,-212.96"/>
<polygon fill="#333333" stroke="#333333" stroke-width="2" points="2190.13,-212.96 2186.63,-202.96 2183.13,-212.96 2190.13,-212.96"/>
<text xml:space="preserve" text-anchor="middle" x="1859.94" y="-472.85" font-family="Helvetica,sans-Serif" font-size="12.00"> 注入环境</text>
</g>
<!-- replay_buffer -->
<g id="node9" class="node">
<title>replay_buffer</title>
<polygon fill="#ffffff" stroke="black" points="2692.63,-279.5 2559.88,-279.5 2555.88,-275.5 2555.88,-238.5 2688.63,-238.5 2692.63,-242.5 2692.63,-279.5"/>
<polyline fill="none" stroke="black" points="2688.63,-275.5 2555.88,-275.5"/>
<polyline fill="none" stroke="black" points="2688.63,-275.5 2688.63,-238.5"/>
<polyline fill="none" stroke="black" points="2688.63,-275.5 2692.63,-279.5"/>
<text xml:space="preserve" text-anchor="middle" x="2624.25" y="-260.3" font-family="Helvetica,sans-Serif" font-size="16.00">优先经验回放池</text>
<text xml:space="preserve" text-anchor="middle" x="2624.25" y="-246.05" font-family="Helvetica,sans-Serif" font-size="16.00">(Replay Buffer)</text>
</g>
<!-- env&#45;&gt;replay_buffer -->
<g id="edge9" class="edge">
<title>env&#45;&gt;replay_buffer</title>
<path fill="none" stroke="#333333" d="M2306.63,-199.93C2306.63,-220.47 2306.63,-248.75 2306.63,-248.75 2306.63,-248.75 2544.21,-248.75 2544.21,-248.75"/>
<polygon fill="#333333" stroke="#333333" points="2544.21,-252.25 2554.21,-248.75 2544.21,-245.25 2544.21,-252.25"/>
<text xml:space="preserve" text-anchor="middle" x="2440" y="-211.85" font-family="Helvetica,sans-Serif" font-size="12.00"> 经验 (s,a,r,s&#39;)</text>
</g>
<!-- bilstm -->
<g id="node10" class="node">
<title>bilstm</title>
<path fill="#d0d0d0" stroke="black" d="M1519,-70C1519,-70 1374,-70 1374,-70 1368,-70 1362,-64 1362,-58 1362,-58 1362,-46 1362,-46 1362,-40 1368,-34 1374,-34 1374,-34 1519,-34 1519,-34 1525,-34 1531,-40 1531,-46 1531,-46 1531,-58 1531,-58 1531,-64 1525,-70 1519,-70"/>
<text xml:space="preserve" text-anchor="middle" x="1446.5" y="-46.17" font-family="Helvetica,sans-Serif" font-size="16.00">Bi&#45;LSTM 特征提取器</text>
</g>
<!-- env&#45;&gt;bilstm -->
<g id="edge7" class="edge">
<title>env&#45;&gt;bilstm</title>
<path fill="none" stroke="#333333" d="M2168.21,-179C1981.63,-179 1525.63,-179 1525.63,-179 1525.63,-179 1525.63,-81.98 1525.63,-81.98"/>
<polygon fill="#333333" stroke="#333333" points="1529.13,-81.98 1525.63,-71.98 1522.13,-81.98 1529.13,-81.98"/>
<text xml:space="preserve" text-anchor="middle" x="1859.94" y="-188.85" font-family="Helvetica,sans-Serif" font-size="12.00"> 状态 s</text>
</g>
<!-- replay_buffer&#45;&gt;bilstm -->
<g id="edge10" class="edge">
<title>replay_buffer&#45;&gt;bilstm</title>
<path fill="none" stroke="#333333" stroke-dasharray="5,2" d="M2555.63,-259C2314.52,-259 1520.63,-259 1520.63,-259 1520.63,-259 1520.63,-81.88 1520.63,-81.88"/>
<polygon fill="#333333" stroke="#333333" points="1524.13,-81.88 1520.63,-71.88 1517.13,-81.88 1524.13,-81.88"/>
<text xml:space="preserve" text-anchor="middle" x="2070" y="-261.85" font-family="Helvetica,sans-Serif" font-size="12.00"> 小批量采样</text>
</g>
<!-- q_network -->
<g id="node11" class="node">
<title>q_network</title>
<path fill="#d0d0d0" stroke="black" d="M1948.56,-69.75C1948.56,-69.75 1771.31,-69.75 1771.31,-69.75 1765.31,-69.75 1759.31,-63.75 1759.31,-57.75 1759.31,-57.75 1759.31,-36.25 1759.31,-36.25 1759.31,-30.25 1765.31,-24.25 1771.31,-24.25 1771.31,-24.25 1948.56,-24.25 1948.56,-24.25 1954.56,-24.25 1960.56,-30.25 1960.56,-36.25 1960.56,-36.25 1960.56,-57.75 1960.56,-57.75 1960.56,-63.75 1954.56,-69.75 1948.56,-69.75"/>
<text xml:space="preserve" text-anchor="middle" x="1859.94" y="-50.55" font-family="Helvetica,sans-Serif" font-size="16.00">Q&#45;Network &amp; Policy</text>
<text xml:space="preserve" text-anchor="middle" x="1859.94" y="-31.8" font-family="Helvetica,sans-Serif" font-size="16.00">Q(s,a) ≈ r + γ max Q(s&#39;,a&#39;)</text>
</g>
<!-- bilstm&#45;&gt;q_network -->
<g id="edge6" class="edge">
<title>bilstm&#45;&gt;q_network</title>
<path fill="none" stroke="#333333" d="M1531.41,-51.88C1531.41,-51.88 1747.58,-51.88 1747.58,-51.88"/>
<polygon fill="#333333" stroke="#333333" points="1747.58,-55.38 1757.58,-51.88 1747.58,-48.38 1747.58,-55.38"/>
</g>
<!-- q_network&#45;&gt;env -->
<g id="edge8" class="edge">
<title>q_network&#45;&gt;env</title>
<path fill="none" stroke="#333333" d="M1961.03,-47C2075.6,-47 2246.63,-47 2246.63,-47 2246.63,-47 2246.63,-146.57 2246.63,-146.57"/>
<polygon fill="#333333" stroke="#333333" points="2243.13,-146.57 2246.63,-156.57 2250.13,-146.57 2243.13,-146.57"/>
<text xml:space="preserve" text-anchor="middle" x="2070" y="-122.85" font-family="Helvetica,sans-Serif" font-size="12.00"> 动作 a</text>
</g>
<!-- expert_query -->
<g id="node12" class="node">
<title>expert_query</title>
<path fill="#ffdab9" stroke="black" d="M1959.38,-354C1959.38,-354 1806.1,-354 1806.1,-354 1800.1,-354 1789.39,-350.28 1784.68,-346.56 1784.68,-346.56 1757.92,-325.44 1757.92,-325.44 1753.21,-321.72 1754.5,-318 1760.5,-318 1760.5,-318 1913.77,-318 1913.77,-318 1919.77,-318 1930.48,-321.72 1935.19,-325.44 1935.19,-325.44 1961.96,-346.56 1961.96,-346.56 1966.67,-350.28 1965.38,-354 1959.38,-354"/>
<text xml:space="preserve" text-anchor="middle" x="1859.94" y="-327.93" font-family="Helvetica,sans-Serif" font-size="16.00">主动学习查询</text>
</g>
<!-- q_network&#45;&gt;expert_query -->
<g id="edge11" class="edge">
<title>q_network&#45;&gt;expert_query</title>
<path fill="none" stroke="#555555" stroke-dasharray="5,2" d="M1859.63,-70.16C1859.63,-70.16 1859.63,-306.19 1859.63,-306.19"/>
<polygon fill="#555555" stroke="#555555" points="1856.13,-306.19 1859.63,-316.19 1863.13,-306.2 1856.13,-306.19"/>
<text xml:space="preserve" text-anchor="middle" x="1639.75" y="-218.72" font-family="Helvetica,sans-Serif" font-size="12.00" fill="#555555"> &#160;不确定性评估</text>
</g>
<!-- expert -->
<g id="node13" class="node">
<title>expert</title>
<polygon fill="#ffdab9" stroke="black" points="2276.88,-348 2203.88,-348 2203.88,-324 2276.88,-324 2288.88,-336 2276.88,-348"/>
<text xml:space="preserve" text-anchor="middle" x="2246.38" y="-327.93" font-family="Helvetica,sans-Serif" font-size="16.00">领域专家</text>
</g>
<!-- expert_query&#45;&gt;expert -->
<g id="edge12" class="edge">
<title>expert_query&#45;&gt;expert</title>
<path fill="none" stroke="#555555" stroke-dasharray="5,2" d="M1949.08,-336C1949.08,-336 2192.01,-336 2192.01,-336"/>
<polygon fill="#555555" stroke="#555555" points="2192.01,-339.5 2202.01,-336 2192.01,-332.5 2192.01,-339.5"/>
</g>
<!-- expert&#45;&gt;replay_buffer -->
<g id="edge13" class="edge">
<title>expert&#45;&gt;replay_buffer</title>
<path fill="none" stroke="#555555" stroke-dasharray="5,2" d="M2246.63,-317.76C2246.63,-298 2246.63,-269.25 2246.63,-269.25 2246.63,-269.25 2543.91,-269.25 2543.91,-269.25"/>
<polygon fill="#555555" stroke="#555555" points="2543.91,-272.75 2553.91,-269.25 2543.91,-265.75 2543.91,-272.75"/>
<text xml:space="preserve" text-anchor="middle" x="2440" y="-331.85" font-family="Helvetica,sans-Serif" font-size="12.00" fill="#555555"> 高质量专家标签</text>
</g>
</g>
</svg>
